<mxfile host="65bd71144e">
    <diagram id="aUsPdbeQbsIyJxXjDoln" name="Component">
        <mxGraphModel dx="1216" dy="623" grid="1" gridSize="10" guides="1" tooltips="1" connect="1" arrows="1" fold="1" page="1" pageScale="1" pageWidth="850" pageHeight="1100" math="0" shadow="0">
            <root>
                <mxCell id="hVEqLBUCLdmQhVkSdDYR-0"/>
                <mxCell id="hVEqLBUCLdmQhVkSdDYR-1" parent="hVEqLBUCLdmQhVkSdDYR-0"/>
                <mxCell id="hVEqLBUCLdmQhVkSdDYR-2" value="&lt;p style=&quot;margin: 6px 0px 0px; text-align: center; font-size: 14px;&quot;&gt;&lt;b style=&quot;font-size: 14px;&quot;&gt;Front-end&lt;/b&gt;&lt;/p&gt;&lt;hr style=&quot;font-size: 14px;&quot;&gt;&lt;p style=&quot;margin: 0px 0px 0px 8px; font-size: 14px;&quot;&gt;&lt;br style=&quot;font-size: 14px;&quot;&gt;&lt;/p&gt;" style="align=left;overflow=fill;html=1;dropTarget=0;fontSize=14;" parent="hVEqLBUCLdmQhVkSdDYR-1" vertex="1">
                    <mxGeometry x="20" y="260" width="200" height="230" as="geometry"/>
                </mxCell>
                <mxCell id="hVEqLBUCLdmQhVkSdDYR-3" value="" style="shape=component;jettyWidth=8;jettyHeight=4;fontSize=14;" parent="hVEqLBUCLdmQhVkSdDYR-2" vertex="1">
                    <mxGeometry x="1" width="20" height="20" relative="1" as="geometry">
                        <mxPoint x="-24" y="4" as="offset"/>
                    </mxGeometry>
                </mxCell>
                <mxCell id="hVEqLBUCLdmQhVkSdDYR-5" value="«component»&lt;br style=&quot;font-size: 14px;&quot;&gt;&lt;b style=&quot;font-size: 14px;&quot;&gt;WebView&lt;/b&gt;" style="html=1;dropTarget=0;fontSize=14;" parent="hVEqLBUCLdmQhVkSdDYR-1" vertex="1">
                    <mxGeometry x="40" y="310" width="160" height="60" as="geometry"/>
                </mxCell>
                <mxCell id="hVEqLBUCLdmQhVkSdDYR-6" value="" style="shape=module;jettyWidth=8;jettyHeight=4;fontSize=14;" parent="hVEqLBUCLdmQhVkSdDYR-5" vertex="1">
                    <mxGeometry x="1" width="20" height="20" relative="1" as="geometry">
                        <mxPoint x="-27" y="7" as="offset"/>
                    </mxGeometry>
                </mxCell>
                <mxCell id="hVEqLBUCLdmQhVkSdDYR-19" style="edgeStyle=orthogonalEdgeStyle;html=1;fontSize=14;endArrow=none;endFill=0;" parent="hVEqLBUCLdmQhVkSdDYR-1" source="hVEqLBUCLdmQhVkSdDYR-7" target="hVEqLBUCLdmQhVkSdDYR-23" edge="1">
                    <mxGeometry relative="1" as="geometry">
                        <mxPoint x="310" y="430" as="targetPoint"/>
                        <Array as="points">
                            <mxPoint x="270" y="420"/>
                            <mxPoint x="270" y="340"/>
                        </Array>
                    </mxGeometry>
                </mxCell>
                <mxCell id="hVEqLBUCLdmQhVkSdDYR-7" value="«component»&lt;br style=&quot;font-size: 14px;&quot;&gt;&lt;b style=&quot;font-size: 14px;&quot;&gt;ExcelReader&lt;/b&gt;" style="html=1;dropTarget=0;fontSize=14;" parent="hVEqLBUCLdmQhVkSdDYR-1" vertex="1">
                    <mxGeometry x="40" y="400" width="160" height="60" as="geometry"/>
                </mxCell>
                <mxCell id="hVEqLBUCLdmQhVkSdDYR-8" value="" style="shape=module;jettyWidth=8;jettyHeight=4;fontSize=14;" parent="hVEqLBUCLdmQhVkSdDYR-7" vertex="1">
                    <mxGeometry x="1" width="20" height="20" relative="1" as="geometry">
                        <mxPoint x="-27" y="7" as="offset"/>
                    </mxGeometry>
                </mxCell>
                <mxCell id="hVEqLBUCLdmQhVkSdDYR-9" value="&lt;p style=&quot;margin: 6px 0px 0px; text-align: center; font-size: 14px;&quot;&gt;&lt;b style=&quot;font-size: 14px;&quot;&gt;Back-end&lt;/b&gt;&lt;/p&gt;&lt;hr style=&quot;font-size: 14px;&quot;&gt;&lt;p style=&quot;margin: 0px 0px 0px 8px; font-size: 14px;&quot;&gt;&lt;br style=&quot;font-size: 14px;&quot;&gt;&lt;/p&gt;" style="align=left;overflow=fill;html=1;dropTarget=0;fontSize=14;" parent="hVEqLBUCLdmQhVkSdDYR-1" vertex="1">
                    <mxGeometry x="370" y="260" width="200" height="420" as="geometry"/>
                </mxCell>
                <mxCell id="hVEqLBUCLdmQhVkSdDYR-10" value="" style="shape=component;jettyWidth=8;jettyHeight=4;fontSize=14;" parent="hVEqLBUCLdmQhVkSdDYR-9" vertex="1">
                    <mxGeometry x="1" width="20" height="20" relative="1" as="geometry">
                        <mxPoint x="-24" y="4" as="offset"/>
                    </mxGeometry>
                </mxCell>
                <mxCell id="hVEqLBUCLdmQhVkSdDYR-11" value="«component»&lt;br style=&quot;font-size: 14px;&quot;&gt;&lt;b style=&quot;font-size: 14px;&quot;&gt;Receiver&lt;/b&gt;" style="html=1;dropTarget=0;fontSize=14;" parent="hVEqLBUCLdmQhVkSdDYR-1" vertex="1">
                    <mxGeometry x="390" y="310" width="160" height="60" as="geometry"/>
                </mxCell>
                <mxCell id="hVEqLBUCLdmQhVkSdDYR-12" value="" style="shape=module;jettyWidth=8;jettyHeight=4;fontSize=14;" parent="hVEqLBUCLdmQhVkSdDYR-11" vertex="1">
                    <mxGeometry x="1" width="20" height="20" relative="1" as="geometry">
                        <mxPoint x="-27" y="7" as="offset"/>
                    </mxGeometry>
                </mxCell>
                <mxCell id="hVEqLBUCLdmQhVkSdDYR-15" value="&lt;p style=&quot;margin: 6px 0px 0px; text-align: center; font-size: 14px;&quot;&gt;&lt;b style=&quot;font-size: 14px;&quot;&gt;Database&lt;/b&gt;&lt;/p&gt;&lt;hr style=&quot;font-size: 14px;&quot;&gt;&lt;p style=&quot;margin: 0px 0px 0px 8px; font-size: 14px;&quot;&gt;&lt;br style=&quot;font-size: 14px;&quot;&gt;&lt;/p&gt;" style="align=left;overflow=fill;html=1;dropTarget=0;fontSize=14;" parent="hVEqLBUCLdmQhVkSdDYR-1" vertex="1">
                    <mxGeometry x="710" y="370" width="200" height="160" as="geometry"/>
                </mxCell>
                <mxCell id="hVEqLBUCLdmQhVkSdDYR-16" value="" style="shape=component;jettyWidth=8;jettyHeight=4;fontSize=14;" parent="hVEqLBUCLdmQhVkSdDYR-15" vertex="1">
                    <mxGeometry x="1" width="20" height="20" relative="1" as="geometry">
                        <mxPoint x="-24" y="4" as="offset"/>
                    </mxGeometry>
                </mxCell>
                <mxCell id="hVEqLBUCLdmQhVkSdDYR-17" value="«component»&lt;br style=&quot;font-size: 14px;&quot;&gt;&lt;b style=&quot;font-size: 14px;&quot;&gt;MongoDB&lt;/b&gt;" style="html=1;dropTarget=0;fontSize=14;" parent="hVEqLBUCLdmQhVkSdDYR-1" vertex="1">
                    <mxGeometry x="730" y="432" width="160" height="60" as="geometry"/>
                </mxCell>
                <mxCell id="hVEqLBUCLdmQhVkSdDYR-18" value="" style="shape=module;jettyWidth=8;jettyHeight=4;fontSize=14;" parent="hVEqLBUCLdmQhVkSdDYR-17" vertex="1">
                    <mxGeometry x="1" width="20" height="20" relative="1" as="geometry">
                        <mxPoint x="-27" y="7" as="offset"/>
                    </mxGeometry>
                </mxCell>
                <mxCell id="hVEqLBUCLdmQhVkSdDYR-24" style="edgeStyle=orthogonalEdgeStyle;html=1;fontSize=14;endArrow=none;endFill=0;" parent="hVEqLBUCLdmQhVkSdDYR-1" source="hVEqLBUCLdmQhVkSdDYR-23" target="hVEqLBUCLdmQhVkSdDYR-11" edge="1">
                    <mxGeometry relative="1" as="geometry">
                        <Array as="points">
                            <mxPoint x="360" y="340"/>
                            <mxPoint x="360" y="340"/>
                        </Array>
                    </mxGeometry>
                </mxCell>
                <mxCell id="hVEqLBUCLdmQhVkSdDYR-23" value="" style="shape=providedRequiredInterface;html=1;verticalLabelPosition=bottom;sketch=0;fontSize=14;" parent="hVEqLBUCLdmQhVkSdDYR-1" vertex="1">
                    <mxGeometry x="310" y="330" width="20" height="20" as="geometry"/>
                </mxCell>
                <mxCell id="hVEqLBUCLdmQhVkSdDYR-32" style="edgeStyle=orthogonalEdgeStyle;html=1;fontSize=14;endArrow=none;endFill=0;" parent="hVEqLBUCLdmQhVkSdDYR-1" source="hVEqLBUCLdmQhVkSdDYR-11" target="hVEqLBUCLdmQhVkSdDYR-33" edge="1">
                    <mxGeometry relative="1" as="geometry">
                        <Array as="points">
                            <mxPoint x="620" y="340"/>
                            <mxPoint x="620" y="462"/>
                        </Array>
                    </mxGeometry>
                </mxCell>
                <mxCell id="hVEqLBUCLdmQhVkSdDYR-25" value="«component»&lt;br style=&quot;font-size: 14px;&quot;&gt;&lt;b style=&quot;font-size: 14px;&quot;&gt;Adapter&lt;/b&gt;" style="html=1;dropTarget=0;fontSize=14;" parent="hVEqLBUCLdmQhVkSdDYR-1" vertex="1">
                    <mxGeometry x="390" y="450" width="160" height="60" as="geometry"/>
                </mxCell>
                <mxCell id="hVEqLBUCLdmQhVkSdDYR-26" value="" style="shape=module;jettyWidth=8;jettyHeight=4;fontSize=14;" parent="hVEqLBUCLdmQhVkSdDYR-25" vertex="1">
                    <mxGeometry x="1" width="20" height="20" relative="1" as="geometry">
                        <mxPoint x="-27" y="7" as="offset"/>
                    </mxGeometry>
                </mxCell>
                <mxCell id="hVEqLBUCLdmQhVkSdDYR-27" value="«component»&lt;br style=&quot;font-size: 14px;&quot;&gt;&lt;b style=&quot;font-size: 14px;&quot;&gt;Engine&lt;/b&gt;" style="html=1;dropTarget=0;fontSize=14;" parent="hVEqLBUCLdmQhVkSdDYR-1" vertex="1">
                    <mxGeometry x="390" y="590" width="160" height="60" as="geometry"/>
                </mxCell>
                <mxCell id="hVEqLBUCLdmQhVkSdDYR-28" value="" style="shape=module;jettyWidth=8;jettyHeight=4;fontSize=14;" parent="hVEqLBUCLdmQhVkSdDYR-27" vertex="1">
                    <mxGeometry x="1" width="20" height="20" relative="1" as="geometry">
                        <mxPoint x="-27" y="7" as="offset"/>
                    </mxGeometry>
                </mxCell>
                <mxCell id="hVEqLBUCLdmQhVkSdDYR-31" value="" style="edgeStyle=none;html=1;fontSize=14;endArrow=none;endFill=0;" parent="hVEqLBUCLdmQhVkSdDYR-1" source="hVEqLBUCLdmQhVkSdDYR-29" target="hVEqLBUCLdmQhVkSdDYR-25" edge="1">
                    <mxGeometry relative="1" as="geometry"/>
                </mxCell>
                <mxCell id="hVEqLBUCLdmQhVkSdDYR-43" value="" style="edgeStyle=orthogonalEdgeStyle;html=1;fontSize=14;endArrow=none;endFill=0;" parent="hVEqLBUCLdmQhVkSdDYR-1" source="hVEqLBUCLdmQhVkSdDYR-29" target="hVEqLBUCLdmQhVkSdDYR-27" edge="1">
                    <mxGeometry relative="1" as="geometry"/>
                </mxCell>
                <mxCell id="hVEqLBUCLdmQhVkSdDYR-29" value="" style="shape=providedRequiredInterface;html=1;verticalLabelPosition=bottom;sketch=0;fontSize=14;rotation=-90;" parent="hVEqLBUCLdmQhVkSdDYR-1" vertex="1">
                    <mxGeometry x="460" y="540" width="20" height="20" as="geometry"/>
                </mxCell>
                <mxCell id="hVEqLBUCLdmQhVkSdDYR-34" style="edgeStyle=orthogonalEdgeStyle;html=1;fontSize=14;endArrow=none;endFill=0;" parent="hVEqLBUCLdmQhVkSdDYR-1" source="hVEqLBUCLdmQhVkSdDYR-33" target="hVEqLBUCLdmQhVkSdDYR-17" edge="1">
                    <mxGeometry relative="1" as="geometry"/>
                </mxCell>
                <mxCell id="hVEqLBUCLdmQhVkSdDYR-33" value="" style="shape=providedRequiredInterface;html=1;verticalLabelPosition=bottom;sketch=0;fontSize=14;rotation=-180;" parent="hVEqLBUCLdmQhVkSdDYR-1" vertex="1">
                    <mxGeometry x="650" y="452" width="20" height="20" as="geometry"/>
                </mxCell>
                <mxCell id="hVEqLBUCLdmQhVkSdDYR-41" style="edgeStyle=orthogonalEdgeStyle;html=1;fontSize=14;endArrow=none;endFill=0;" parent="hVEqLBUCLdmQhVkSdDYR-1" source="hVEqLBUCLdmQhVkSdDYR-39" target="hVEqLBUCLdmQhVkSdDYR-11" edge="1">
                    <mxGeometry relative="1" as="geometry"/>
                </mxCell>
                <mxCell id="hVEqLBUCLdmQhVkSdDYR-42" style="edgeStyle=orthogonalEdgeStyle;html=1;fontSize=14;endArrow=none;endFill=0;" parent="hVEqLBUCLdmQhVkSdDYR-1" source="hVEqLBUCLdmQhVkSdDYR-39" target="hVEqLBUCLdmQhVkSdDYR-25" edge="1">
                    <mxGeometry relative="1" as="geometry"/>
                </mxCell>
                <mxCell id="hVEqLBUCLdmQhVkSdDYR-39" value="" style="shape=providedRequiredInterface;html=1;verticalLabelPosition=bottom;sketch=0;fontSize=14;rotation=90;" parent="hVEqLBUCLdmQhVkSdDYR-1" vertex="1">
                    <mxGeometry x="460" y="400" width="20" height="20" as="geometry"/>
                </mxCell>
            </root>
        </mxGraphModel>
    </diagram>
    <diagram id="K4_jbr0d9Aozrl5pa6UD" name="ERD">
        <mxGraphModel dx="1216" dy="623" grid="1" gridSize="10" guides="1" tooltips="1" connect="1" arrows="1" fold="1" page="1" pageScale="1" pageWidth="850" pageHeight="1100" math="0" shadow="0">
            <root>
                <mxCell id="qdN79WPB_da_YeY-ibnM-0"/>
                <mxCell id="qdN79WPB_da_YeY-ibnM-1" parent="qdN79WPB_da_YeY-ibnM-0"/>
                <mxCell id="zqMLrcY-90uTSbGgyRzI-17" value="N" style="edgeStyle=none;shape=link;html=1;fontSize=13;endArrow=none;endFill=0;" parent="qdN79WPB_da_YeY-ibnM-1" source="zqMLrcY-90uTSbGgyRzI-15" target="zqMLrcY-90uTSbGgyRzI-13" edge="1">
                    <mxGeometry x="-0.3147" y="17" relative="1" as="geometry">
                        <mxPoint as="offset"/>
                    </mxGeometry>
                </mxCell>
                <mxCell id="layZXDN55X7Aye5gJgr2-13" value="M" style="edgeStyle=none;html=1;endArrow=none;endFill=0;shape=link;fontSize=13;" parent="qdN79WPB_da_YeY-ibnM-1" source="layZXDN55X7Aye5gJgr2-11" target="bKiteLw3TsicxoiROTJc-0" edge="1">
                    <mxGeometry x="-0.9131" y="-15" relative="1" as="geometry">
                        <mxPoint as="offset"/>
                    </mxGeometry>
                </mxCell>
                <mxCell id="dy1Ph0kCcK3qXpmmW76Q-1" value="N" style="edgeStyle=none;html=1;endArrow=none;endFill=0;shape=link;fontSize=13;" parent="qdN79WPB_da_YeY-ibnM-1" source="bKiteLw3TsicxoiROTJc-4" target="bKiteLw3TsicxoiROTJc-0" edge="1">
                    <mxGeometry x="-0.675" y="16" relative="1" as="geometry">
                        <mxPoint as="offset"/>
                    </mxGeometry>
                </mxCell>
                <mxCell id="layZXDN55X7Aye5gJgr2-5" value="1" style="edgeStyle=none;html=1;endArrow=none;endFill=0;fontSize=13;" parent="qdN79WPB_da_YeY-ibnM-1" source="qdN79WPB_da_YeY-ibnM-2" target="layZXDN55X7Aye5gJgr2-4" edge="1">
                    <mxGeometry x="0.85" y="-12" relative="1" as="geometry">
                        <mxPoint as="offset"/>
                    </mxGeometry>
                </mxCell>
                <mxCell id="qdN79WPB_da_YeY-ibnM-2" value="Room" style="whiteSpace=wrap;html=1;align=center;fontSize=13;" parent="qdN79WPB_da_YeY-ibnM-1" vertex="1">
                    <mxGeometry x="140" y="90" width="100" height="40" as="geometry"/>
                </mxCell>
                <mxCell id="qdN79WPB_da_YeY-ibnM-4" style="edgeStyle=none;html=1;endArrow=none;endFill=0;fontSize=13;" parent="qdN79WPB_da_YeY-ibnM-1" source="qdN79WPB_da_YeY-ibnM-3" target="qdN79WPB_da_YeY-ibnM-2" edge="1">
                    <mxGeometry relative="1" as="geometry"/>
                </mxCell>
                <mxCell id="qdN79WPB_da_YeY-ibnM-3" value="ID" style="ellipse;whiteSpace=wrap;html=1;align=center;fontStyle=4;fontSize=13;" parent="qdN79WPB_da_YeY-ibnM-1" vertex="1">
                    <mxGeometry x="30" y="150" width="100" height="40" as="geometry"/>
                </mxCell>
                <mxCell id="qdN79WPB_da_YeY-ibnM-9" style="edgeStyle=none;html=1;endArrow=none;endFill=0;fontSize=13;" parent="qdN79WPB_da_YeY-ibnM-1" source="qdN79WPB_da_YeY-ibnM-5" target="qdN79WPB_da_YeY-ibnM-2" edge="1">
                    <mxGeometry relative="1" as="geometry"/>
                </mxCell>
                <mxCell id="qdN79WPB_da_YeY-ibnM-5" value="&lt;span style=&quot;font-size: 13px;&quot;&gt;Campus&lt;/span&gt;" style="ellipse;whiteSpace=wrap;html=1;align=center;fontFamily=Helvetica;fontSize=13;fontColor=rgb(0, 0, 0);strokeColor=rgb(0, 0, 0);fillColor=rgb(255, 255, 255);fontStyle=0" parent="qdN79WPB_da_YeY-ibnM-1" vertex="1">
                    <mxGeometry x="140" width="100" height="40" as="geometry"/>
                </mxCell>
                <mxCell id="layZXDN55X7Aye5gJgr2-2" value="N" style="edgeStyle=none;html=1;endArrow=none;endFill=0;fontSize=13;" parent="qdN79WPB_da_YeY-ibnM-1" source="qdN79WPB_da_YeY-ibnM-15" target="layZXDN55X7Aye5gJgr2-1" edge="1">
                    <mxGeometry x="0.8667" y="-14" relative="1" as="geometry">
                        <mxPoint as="offset"/>
                    </mxGeometry>
                </mxCell>
                <mxCell id="qdN79WPB_da_YeY-ibnM-15" value="Instructor" style="whiteSpace=wrap;html=1;align=center;fontSize=13;" parent="qdN79WPB_da_YeY-ibnM-1" vertex="1">
                    <mxGeometry x="510" y="90" width="100" height="40" as="geometry"/>
                </mxCell>
                <mxCell id="dy1Ph0kCcK3qXpmmW76Q-0" value="1" style="edgeStyle=none;html=1;endArrow=none;endFill=0;fontSize=13;" parent="qdN79WPB_da_YeY-ibnM-1" source="qdN79WPB_da_YeY-ibnM-16" target="bKiteLw3TsicxoiROTJc-4" edge="1">
                    <mxGeometry x="0.8" y="18" relative="1" as="geometry">
                        <mxPoint as="offset"/>
                    </mxGeometry>
                </mxCell>
                <mxCell id="qdN79WPB_da_YeY-ibnM-16" value="Subject" style="whiteSpace=wrap;html=1;align=center;fontSize=13;" parent="qdN79WPB_da_YeY-ibnM-1" vertex="1">
                    <mxGeometry x="510" y="490" width="100" height="40" as="geometry"/>
                </mxCell>
                <mxCell id="layZXDN55X7Aye5gJgr2-12" value="N" style="html=1;endArrow=none;endFill=0;fontSize=13;" parent="qdN79WPB_da_YeY-ibnM-1" source="qdN79WPB_da_YeY-ibnM-17" target="layZXDN55X7Aye5gJgr2-11" edge="1">
                    <mxGeometry x="0.7556" y="13" relative="1" as="geometry">
                        <mxPoint as="offset"/>
                    </mxGeometry>
                </mxCell>
                <mxCell id="qdN79WPB_da_YeY-ibnM-17" value="Student" style="whiteSpace=wrap;html=1;align=center;fontSize=13;" parent="qdN79WPB_da_YeY-ibnM-1" vertex="1">
                    <mxGeometry x="140" y="745" width="100" height="40" as="geometry"/>
                </mxCell>
                <mxCell id="qdN79WPB_da_YeY-ibnM-19" style="edgeStyle=none;html=1;endArrow=none;endFill=0;startArrow=none;fontSize=13;" parent="qdN79WPB_da_YeY-ibnM-1" source="qdN79WPB_da_YeY-ibnM-20" target="qdN79WPB_da_YeY-ibnM-16" edge="1">
                    <mxGeometry relative="1" as="geometry"/>
                </mxCell>
                <mxCell id="qdN79WPB_da_YeY-ibnM-18" value="ID" style="ellipse;whiteSpace=wrap;html=1;align=center;fontStyle=4;fontSize=13;" parent="qdN79WPB_da_YeY-ibnM-1" vertex="1">
                    <mxGeometry x="410" y="430" width="100" height="40" as="geometry"/>
                </mxCell>
                <mxCell id="qdN79WPB_da_YeY-ibnM-21" style="edgeStyle=none;html=1;endArrow=none;endFill=0;fontSize=13;" parent="qdN79WPB_da_YeY-ibnM-1" source="qdN79WPB_da_YeY-ibnM-20" target="qdN79WPB_da_YeY-ibnM-16" edge="1">
                    <mxGeometry relative="1" as="geometry"/>
                </mxCell>
                <mxCell id="qdN79WPB_da_YeY-ibnM-23" style="edgeStyle=none;html=1;endArrow=none;endFill=0;fontSize=13;" parent="qdN79WPB_da_YeY-ibnM-1" source="qdN79WPB_da_YeY-ibnM-22" target="qdN79WPB_da_YeY-ibnM-16" edge="1">
                    <mxGeometry relative="1" as="geometry">
                        <mxPoint x="1110" y="560" as="sourcePoint"/>
                    </mxGeometry>
                </mxCell>
                <mxCell id="qdN79WPB_da_YeY-ibnM-22" value="Department" style="ellipse;whiteSpace=wrap;html=1;align=center;fontSize=13;" parent="qdN79WPB_da_YeY-ibnM-1" vertex="1">
                    <mxGeometry x="640" y="450" width="100" height="40" as="geometry"/>
                </mxCell>
                <mxCell id="7yGjMBfn9x34-ksJ31fS-0" style="edgeStyle=none;html=1;endArrow=none;endFill=0;fontSize=13;" parent="qdN79WPB_da_YeY-ibnM-1" source="qdN79WPB_da_YeY-ibnM-24" target="qdN79WPB_da_YeY-ibnM-15" edge="1">
                    <mxGeometry relative="1" as="geometry"/>
                </mxCell>
                <mxCell id="qdN79WPB_da_YeY-ibnM-24" value="ID" style="ellipse;whiteSpace=wrap;html=1;align=center;fontStyle=4;fontSize=13;" parent="qdN79WPB_da_YeY-ibnM-1" vertex="1">
                    <mxGeometry x="400" y="30" width="100" height="40" as="geometry"/>
                </mxCell>
                <mxCell id="qdN79WPB_da_YeY-ibnM-20" value="Name" style="ellipse;whiteSpace=wrap;html=1;align=center;fontSize=13;" parent="qdN79WPB_da_YeY-ibnM-1" vertex="1">
                    <mxGeometry x="580" y="400" width="100" height="40" as="geometry"/>
                </mxCell>
                <mxCell id="yy-9FVxkmxIszsLFXg1U-0" value="" style="edgeStyle=none;html=1;endArrow=none;endFill=0;fontSize=13;" parent="qdN79WPB_da_YeY-ibnM-1" source="qdN79WPB_da_YeY-ibnM-18" target="qdN79WPB_da_YeY-ibnM-16" edge="1">
                    <mxGeometry relative="1" as="geometry">
                        <mxPoint x="950" y="470" as="sourcePoint"/>
                        <mxPoint x="950" y="540" as="targetPoint"/>
                    </mxGeometry>
                </mxCell>
                <mxCell id="GTmi8mPTIwCQb2mSc3X--0" style="edgeStyle=none;html=1;endArrow=none;endFill=0;fontSize=13;" parent="qdN79WPB_da_YeY-ibnM-1" source="7yGjMBfn9x34-ksJ31fS-1" target="qdN79WPB_da_YeY-ibnM-15" edge="1">
                    <mxGeometry relative="1" as="geometry"/>
                </mxCell>
                <mxCell id="7yGjMBfn9x34-ksJ31fS-1" value="Name" style="ellipse;whiteSpace=wrap;html=1;align=center;fontSize=13;" parent="qdN79WPB_da_YeY-ibnM-1" vertex="1">
                    <mxGeometry x="510" width="100" height="40" as="geometry"/>
                </mxCell>
                <mxCell id="GTmi8mPTIwCQb2mSc3X--3" style="edgeStyle=none;html=1;endArrow=none;endFill=0;startArrow=none;fontSize=13;" parent="qdN79WPB_da_YeY-ibnM-1" source="GTmi8mPTIwCQb2mSc3X--4" target="qdN79WPB_da_YeY-ibnM-17" edge="1">
                    <mxGeometry relative="1" as="geometry"/>
                </mxCell>
                <mxCell id="GTmi8mPTIwCQb2mSc3X--2" value="Name" style="ellipse;whiteSpace=wrap;html=1;align=center;fontSize=13;" parent="qdN79WPB_da_YeY-ibnM-1" vertex="1">
                    <mxGeometry x="30" y="810" width="100" height="40" as="geometry"/>
                </mxCell>
                <mxCell id="GTmi8mPTIwCQb2mSc3X--5" style="edgeStyle=none;html=1;endArrow=none;endFill=0;fontSize=13;" parent="qdN79WPB_da_YeY-ibnM-1" source="GTmi8mPTIwCQb2mSc3X--4" target="qdN79WPB_da_YeY-ibnM-17" edge="1">
                    <mxGeometry relative="1" as="geometry"/>
                </mxCell>
                <mxCell id="M3IGKOz9SnX93r0b2dn3-1" style="edgeStyle=none;html=1;endArrow=none;endFill=0;fontSize=13;" parent="qdN79WPB_da_YeY-ibnM-1" source="M3IGKOz9SnX93r0b2dn3-0" target="qdN79WPB_da_YeY-ibnM-2" edge="1">
                    <mxGeometry relative="1" as="geometry"/>
                </mxCell>
                <mxCell id="M3IGKOz9SnX93r0b2dn3-0" value="Capacity" style="ellipse;whiteSpace=wrap;html=1;align=center;fontSize=13;" parent="qdN79WPB_da_YeY-ibnM-1" vertex="1">
                    <mxGeometry x="250" y="30" width="100" height="40" as="geometry"/>
                </mxCell>
                <mxCell id="_t6L3a68vgyjzPyimgFT-0" style="edgeStyle=none;html=1;endArrow=none;endFill=0;fontSize=13;" parent="qdN79WPB_da_YeY-ibnM-1" source="HDJOx5JCIfA83HG2kJI9-0" target="qdN79WPB_da_YeY-ibnM-2" edge="1">
                    <mxGeometry relative="1" as="geometry"/>
                </mxCell>
                <mxCell id="HDJOx5JCIfA83HG2kJI9-0" value="Type" style="ellipse;whiteSpace=wrap;html=1;align=center;fontSize=13;" parent="qdN79WPB_da_YeY-ibnM-1" vertex="1">
                    <mxGeometry x="275" y="90" width="100" height="40" as="geometry"/>
                </mxCell>
                <mxCell id="_t6L3a68vgyjzPyimgFT-3" style="edgeStyle=none;html=1;endArrow=none;endFill=0;fontSize=13;" parent="qdN79WPB_da_YeY-ibnM-1" source="_t6L3a68vgyjzPyimgFT-1" target="qdN79WPB_da_YeY-ibnM-2" edge="1">
                    <mxGeometry relative="1" as="geometry"/>
                </mxCell>
                <mxCell id="_t6L3a68vgyjzPyimgFT-1" value="Department" style="ellipse;whiteSpace=wrap;html=1;align=center;fontSize=13;" parent="qdN79WPB_da_YeY-ibnM-1" vertex="1">
                    <mxGeometry x="30" y="30" width="100" height="40" as="geometry"/>
                </mxCell>
                <mxCell id="thrdzdLytCBDaa6EmWR9-1" value="N" style="edgeStyle=none;html=1;endArrow=none;endFill=0;fontSize=13;shape=link;" parent="qdN79WPB_da_YeY-ibnM-1" source="bKiteLw3TsicxoiROTJc-0" target="13" edge="1">
                    <mxGeometry x="0.6688" y="19" relative="1" as="geometry">
                        <mxPoint x="275.904062511391" y="572.4756818264661" as="targetPoint"/>
                        <mxPoint as="offset"/>
                    </mxGeometry>
                </mxCell>
                <mxCell id="bKiteLw3TsicxoiROTJc-2" style="edgeStyle=none;html=1;endArrow=none;endFill=0;fontSize=13;" parent="qdN79WPB_da_YeY-ibnM-1" source="bKiteLw3TsicxoiROTJc-3" target="bKiteLw3TsicxoiROTJc-0" edge="1">
                    <mxGeometry relative="1" as="geometry">
                        <mxPoint x="1100.8563906532838" y="446.31422929899634" as="sourcePoint"/>
                    </mxGeometry>
                </mxCell>
                <mxCell id="layZXDN55X7Aye5gJgr2-8" value="N" style="edgeStyle=none;html=1;endArrow=none;endFill=0;shape=link;fontSize=13;" parent="qdN79WPB_da_YeY-ibnM-1" source="bKiteLw3TsicxoiROTJc-0" target="layZXDN55X7Aye5gJgr2-7" edge="1">
                    <mxGeometry x="0.6451" y="18" relative="1" as="geometry">
                        <mxPoint x="-1" as="offset"/>
                    </mxGeometry>
                </mxCell>
                <mxCell id="bKiteLw3TsicxoiROTJc-0" value="Class" style="shape=ext;margin=3;double=1;whiteSpace=wrap;html=1;align=center;fontFamily=Helvetica;fontSize=13;fontColor=rgb(0, 0, 0);strokeColor=rgb(0, 0, 0);fillColor=rgb(255, 255, 255);" parent="qdN79WPB_da_YeY-ibnM-1" vertex="1">
                    <mxGeometry x="140" y="490" width="100" height="40" as="geometry"/>
                </mxCell>
                <mxCell id="bKiteLw3TsicxoiROTJc-3" value="&lt;span style=&quot;border-bottom: 1px dotted; font-size: 13px;&quot;&gt;ID&lt;/span&gt;" style="ellipse;whiteSpace=wrap;html=1;align=center;fontSize=13;" parent="qdN79WPB_da_YeY-ibnM-1" vertex="1">
                    <mxGeometry x="10" y="450" width="100" height="40" as="geometry"/>
                </mxCell>
                <mxCell id="bKiteLw3TsicxoiROTJc-4" value="has" style="shape=rhombus;double=1;perimeter=rhombusPerimeter;whiteSpace=wrap;html=1;align=center;fontSize=13;" parent="qdN79WPB_da_YeY-ibnM-1" vertex="1">
                    <mxGeometry x="320" y="480" width="120" height="60" as="geometry"/>
                </mxCell>
                <mxCell id="Z0xG1NCyCrykWzsEBR38-1" style="edgeStyle=none;html=1;endArrow=none;endFill=0;fontSize=13;" parent="qdN79WPB_da_YeY-ibnM-1" source="Z0xG1NCyCrykWzsEBR38-0" target="bKiteLw3TsicxoiROTJc-0" edge="1">
                    <mxGeometry relative="1" as="geometry"/>
                </mxCell>
                <mxCell id="Z0xG1NCyCrykWzsEBR38-0" value="Name" style="ellipse;whiteSpace=wrap;html=1;align=center;fontFamily=Helvetica;fontSize=13;fontColor=rgb(0, 0, 0);strokeColor=rgb(0, 0, 0);fillColor=rgb(255, 255, 255);" parent="qdN79WPB_da_YeY-ibnM-1" vertex="1">
                    <mxGeometry x="10" y="530" width="100" height="40" as="geometry"/>
                </mxCell>
                <mxCell id="layZXDN55X7Aye5gJgr2-3" style="edgeStyle=none;html=1;endArrow=none;endFill=0;fontSize=13;shape=link;" parent="qdN79WPB_da_YeY-ibnM-1" source="layZXDN55X7Aye5gJgr2-1" target="qdN79WPB_da_YeY-ibnM-16" edge="1">
                    <mxGeometry relative="1" as="geometry"/>
                </mxCell>
                <mxCell id="zqMLrcY-90uTSbGgyRzI-3" value="M" style="edgeLabel;html=1;align=center;verticalAlign=middle;resizable=0;points=[];fontSize=13;" parent="layZXDN55X7Aye5gJgr2-3" vertex="1" connectable="0">
                    <mxGeometry x="-0.2267" y="-5" relative="1" as="geometry">
                        <mxPoint x="-18" y="48" as="offset"/>
                    </mxGeometry>
                </mxCell>
                <mxCell id="layZXDN55X7Aye5gJgr2-1" value="teach" style="shape=rhombus;perimeter=rhombusPerimeter;whiteSpace=wrap;html=1;align=center;fontSize=13;" parent="qdN79WPB_da_YeY-ibnM-1" vertex="1">
                    <mxGeometry x="500" y="280" width="120" height="60" as="geometry"/>
                </mxCell>
                <mxCell id="layZXDN55X7Aye5gJgr2-6" value="N" style="edgeStyle=none;html=1;endArrow=none;endFill=0;shape=link;fontSize=13;" parent="qdN79WPB_da_YeY-ibnM-1" source="layZXDN55X7Aye5gJgr2-4" target="bKiteLw3TsicxoiROTJc-0" edge="1">
                    <mxGeometry x="-0.8571" y="14" relative="1" as="geometry">
                        <mxPoint as="offset"/>
                    </mxGeometry>
                </mxCell>
                <mxCell id="layZXDN55X7Aye5gJgr2-4" value="have" style="shape=rhombus;perimeter=rhombusPerimeter;whiteSpace=wrap;html=1;align=center;fontSize=13;" parent="qdN79WPB_da_YeY-ibnM-1" vertex="1">
                    <mxGeometry x="130" y="280" width="120" height="60" as="geometry"/>
                </mxCell>
                <mxCell id="layZXDN55X7Aye5gJgr2-9" value="1" style="edgeStyle=none;html=1;endArrow=none;endFill=0;fontSize=13;" parent="qdN79WPB_da_YeY-ibnM-1" source="layZXDN55X7Aye5gJgr2-7" target="qdN79WPB_da_YeY-ibnM-15" edge="1">
                    <mxGeometry x="-0.7167" y="-13" relative="1" as="geometry">
                        <mxPoint as="offset"/>
                    </mxGeometry>
                </mxCell>
                <mxCell id="layZXDN55X7Aye5gJgr2-7" value="teach" style="shape=rhombus;perimeter=rhombusPerimeter;whiteSpace=wrap;html=1;align=center;fontSize=13;" parent="qdN79WPB_da_YeY-ibnM-1" vertex="1">
                    <mxGeometry x="320" y="280" width="120" height="60" as="geometry"/>
                </mxCell>
                <mxCell id="layZXDN55X7Aye5gJgr2-11" value="studied_by" style="shape=rhombus;perimeter=rhombusPerimeter;whiteSpace=wrap;html=1;align=center;fontSize=13;" parent="qdN79WPB_da_YeY-ibnM-1" vertex="1">
                    <mxGeometry x="130" y="620" width="120" height="60" as="geometry"/>
                </mxCell>
                <mxCell id="GTmi8mPTIwCQb2mSc3X--4" value="ID" style="ellipse;whiteSpace=wrap;html=1;align=center;fontStyle=4;fontSize=13;" parent="qdN79WPB_da_YeY-ibnM-1" vertex="1">
                    <mxGeometry x="10" y="745" width="100" height="40" as="geometry"/>
                </mxCell>
                <mxCell id="layZXDN55X7Aye5gJgr2-15" value="" style="edgeStyle=none;html=1;endArrow=none;endFill=0;fontSize=13;" parent="qdN79WPB_da_YeY-ibnM-1" source="GTmi8mPTIwCQb2mSc3X--2" target="qdN79WPB_da_YeY-ibnM-17" edge="1">
                    <mxGeometry relative="1" as="geometry">
                        <mxPoint x="100" y="655" as="sourcePoint"/>
                        <mxPoint x="550" y="655" as="targetPoint"/>
                    </mxGeometry>
                </mxCell>
                <mxCell id="jLn-lNAor_mCdTiHV6YE-1" style="edgeStyle=none;html=1;endArrow=none;endFill=0;fontSize=13;" parent="qdN79WPB_da_YeY-ibnM-1" source="jLn-lNAor_mCdTiHV6YE-0" target="qdN79WPB_da_YeY-ibnM-15" edge="1">
                    <mxGeometry relative="1" as="geometry"/>
                </mxCell>
                <mxCell id="jLn-lNAor_mCdTiHV6YE-0" value="Department" style="ellipse;whiteSpace=wrap;html=1;align=center;fontSize=13;" parent="qdN79WPB_da_YeY-ibnM-1" vertex="1">
                    <mxGeometry x="620" y="30" width="100" height="40" as="geometry"/>
                </mxCell>
                <mxCell id="zqMLrcY-90uTSbGgyRzI-1" style="edgeStyle=none;html=1;endArrow=none;endFill=0;" parent="qdN79WPB_da_YeY-ibnM-1" source="zqMLrcY-90uTSbGgyRzI-0" target="qdN79WPB_da_YeY-ibnM-2" edge="1">
                    <mxGeometry relative="1" as="geometry"/>
                </mxCell>
                <mxCell id="zqMLrcY-90uTSbGgyRzI-0" value="Label" style="ellipse;whiteSpace=wrap;html=1;align=center;fontSize=13;fontStyle=4" parent="qdN79WPB_da_YeY-ibnM-1" vertex="1">
                    <mxGeometry y="90" width="100" height="40" as="geometry"/>
                </mxCell>
                <mxCell id="zqMLrcY-90uTSbGgyRzI-9" style="edgeStyle=none;html=1;fontSize=13;endArrow=none;endFill=0;" parent="qdN79WPB_da_YeY-ibnM-1" source="zqMLrcY-90uTSbGgyRzI-8" target="qdN79WPB_da_YeY-ibnM-17" edge="1">
                    <mxGeometry relative="1" as="geometry"/>
                </mxCell>
                <mxCell id="zqMLrcY-90uTSbGgyRzI-8" value="Department" style="ellipse;whiteSpace=wrap;html=1;align=center;fontSize=13;" parent="qdN79WPB_da_YeY-ibnM-1" vertex="1">
                    <mxGeometry x="175" y="810" width="100" height="40" as="geometry"/>
                </mxCell>
                <mxCell id="zqMLrcY-90uTSbGgyRzI-23" style="edgeStyle=none;html=1;fontSize=13;endArrow=none;endFill=0;" parent="qdN79WPB_da_YeY-ibnM-1" source="zqMLrcY-90uTSbGgyRzI-13" target="zqMLrcY-90uTSbGgyRzI-21" edge="1">
                    <mxGeometry relative="1" as="geometry"/>
                </mxCell>
                <mxCell id="zqMLrcY-90uTSbGgyRzI-24" style="edgeStyle=none;html=1;fontSize=13;endArrow=none;endFill=0;" parent="qdN79WPB_da_YeY-ibnM-1" source="zqMLrcY-90uTSbGgyRzI-21" target="zqMLrcY-90uTSbGgyRzI-22" edge="1">
                    <mxGeometry relative="1" as="geometry"/>
                </mxCell>
                <mxCell id="zqMLrcY-90uTSbGgyRzI-32" style="edgeStyle=none;html=1;fontSize=13;endArrow=none;endFill=0;" parent="qdN79WPB_da_YeY-ibnM-1" source="zqMLrcY-90uTSbGgyRzI-13" target="zqMLrcY-90uTSbGgyRzI-31" edge="1">
                    <mxGeometry relative="1" as="geometry"/>
                </mxCell>
                <mxCell id="zqMLrcY-90uTSbGgyRzI-13" value="New_class" style="shape=ext;margin=3;double=1;whiteSpace=wrap;html=1;align=center;fontFamily=Helvetica;fontSize=13;fontColor=rgb(0, 0, 0);strokeColor=rgb(0, 0, 0);fillColor=rgb(255, 255, 255);" parent="qdN79WPB_da_YeY-ibnM-1" vertex="1">
                    <mxGeometry x="605" y="680" width="100" height="40" as="geometry"/>
                </mxCell>
                <mxCell id="zqMLrcY-90uTSbGgyRzI-16" value="1" style="edgeStyle=none;html=1;fontSize=13;endArrow=none;endFill=0;" parent="qdN79WPB_da_YeY-ibnM-1" source="zqMLrcY-90uTSbGgyRzI-15" target="qdN79WPB_da_YeY-ibnM-16" edge="1">
                    <mxGeometry x="-0.7333" y="-15" relative="1" as="geometry">
                        <mxPoint as="offset"/>
                    </mxGeometry>
                </mxCell>
                <mxCell id="zqMLrcY-90uTSbGgyRzI-15" value="open" style="shape=rhombus;double=1;perimeter=rhombusPerimeter;whiteSpace=wrap;html=1;align=center;fontSize=13;" parent="qdN79WPB_da_YeY-ibnM-1" vertex="1">
                    <mxGeometry x="500" y="590" width="120" height="60" as="geometry"/>
                </mxCell>
                <mxCell id="zqMLrcY-90uTSbGgyRzI-20" style="edgeStyle=none;html=1;fontSize=13;endArrow=none;endFill=0;" parent="qdN79WPB_da_YeY-ibnM-1" source="zqMLrcY-90uTSbGgyRzI-19" target="zqMLrcY-90uTSbGgyRzI-13" edge="1">
                    <mxGeometry relative="1" as="geometry"/>
                </mxCell>
                <mxCell id="zqMLrcY-90uTSbGgyRzI-19" value="&lt;span style=&quot;border-bottom: 1px dotted; font-size: 13px;&quot;&gt;ID&lt;/span&gt;" style="ellipse;whiteSpace=wrap;html=1;align=center;fontSize=13;" parent="qdN79WPB_da_YeY-ibnM-1" vertex="1">
                    <mxGeometry x="450" y="660" width="100" height="40" as="geometry"/>
                </mxCell>
                <mxCell id="zqMLrcY-90uTSbGgyRzI-21" value="Entrants" style="ellipse;whiteSpace=wrap;html=1;align=center;fontSize=13;" parent="qdN79WPB_da_YeY-ibnM-1" vertex="1">
                    <mxGeometry x="670" y="620" width="100" height="40" as="geometry"/>
                </mxCell>
                <mxCell id="zqMLrcY-90uTSbGgyRzI-22" value="Max_entrants" style="ellipse;whiteSpace=wrap;html=1;align=center;fontSize=13;" parent="qdN79WPB_da_YeY-ibnM-1" vertex="1">
                    <mxGeometry x="740" y="550" width="100" height="40" as="geometry"/>
                </mxCell>
                <mxCell id="zqMLrcY-90uTSbGgyRzI-26" style="edgeStyle=none;html=1;fontSize=13;endArrow=none;endFill=0;" parent="qdN79WPB_da_YeY-ibnM-1" source="zqMLrcY-90uTSbGgyRzI-25" target="zqMLrcY-90uTSbGgyRzI-21" edge="1">
                    <mxGeometry relative="1" as="geometry"/>
                </mxCell>
                <mxCell id="zqMLrcY-90uTSbGgyRzI-25" value="Min_entrants" style="ellipse;whiteSpace=wrap;html=1;align=center;fontSize=13;" parent="qdN79WPB_da_YeY-ibnM-1" vertex="1">
                    <mxGeometry x="620" y="550" width="100" height="40" as="geometry"/>
                </mxCell>
                <mxCell id="zqMLrcY-90uTSbGgyRzI-28" style="edgeStyle=none;html=1;fontSize=13;endArrow=none;endFill=0;" parent="qdN79WPB_da_YeY-ibnM-1" source="zqMLrcY-90uTSbGgyRzI-27" target="zqMLrcY-90uTSbGgyRzI-13" edge="1">
                    <mxGeometry relative="1" as="geometry"/>
                </mxCell>
                <mxCell id="zqMLrcY-90uTSbGgyRzI-27" value="Type" style="ellipse;whiteSpace=wrap;html=1;align=center;fontSize=13;" parent="qdN79WPB_da_YeY-ibnM-1" vertex="1">
                    <mxGeometry x="450" y="720" width="100" height="40" as="geometry"/>
                </mxCell>
                <mxCell id="zqMLrcY-90uTSbGgyRzI-30" style="edgeStyle=none;html=1;fontSize=13;endArrow=none;endFill=0;" parent="qdN79WPB_da_YeY-ibnM-1" source="zqMLrcY-90uTSbGgyRzI-29" target="zqMLrcY-90uTSbGgyRzI-13" edge="1">
                    <mxGeometry relative="1" as="geometry"/>
                </mxCell>
                <mxCell id="zqMLrcY-90uTSbGgyRzI-29" value="Periods" style="ellipse;whiteSpace=wrap;html=1;align=center;fontSize=13;" parent="qdN79WPB_da_YeY-ibnM-1" vertex="1">
                    <mxGeometry x="750" y="680" width="100" height="40" as="geometry"/>
                </mxCell>
                <mxCell id="22" style="edgeStyle=none;html=1;fontSize=13;endArrow=none;endFill=0;" parent="qdN79WPB_da_YeY-ibnM-1" source="zqMLrcY-90uTSbGgyRzI-31" target="21" edge="1">
                    <mxGeometry relative="1" as="geometry"/>
                </mxCell>
                <mxCell id="zqMLrcY-90uTSbGgyRzI-31" value="Preferred" style="ellipse;shape=doubleEllipse;margin=3;whiteSpace=wrap;html=1;align=center;fontFamily=Helvetica;fontSize=13;fontColor=default;strokeColor=default;fillColor=default;" parent="qdN79WPB_da_YeY-ibnM-1" vertex="1">
                    <mxGeometry x="600" y="745" width="110" height="50" as="geometry"/>
                </mxCell>
                <mxCell id="zqMLrcY-90uTSbGgyRzI-34" style="edgeStyle=none;html=1;fontSize=13;endArrow=none;endFill=0;" parent="qdN79WPB_da_YeY-ibnM-1" source="zqMLrcY-90uTSbGgyRzI-33" target="zqMLrcY-90uTSbGgyRzI-31" edge="1">
                    <mxGeometry relative="1" as="geometry"/>
                </mxCell>
                <mxCell id="zqMLrcY-90uTSbGgyRzI-33" value="Campus" style="ellipse;whiteSpace=wrap;html=1;align=center;fontSize=13;" parent="qdN79WPB_da_YeY-ibnM-1" vertex="1">
                    <mxGeometry x="540" y="820" width="100" height="40" as="geometry"/>
                </mxCell>
                <mxCell id="zqMLrcY-90uTSbGgyRzI-36" style="edgeStyle=none;html=1;fontSize=13;endArrow=none;endFill=0;" parent="qdN79WPB_da_YeY-ibnM-1" source="zqMLrcY-90uTSbGgyRzI-35" target="zqMLrcY-90uTSbGgyRzI-31" edge="1">
                    <mxGeometry relative="1" as="geometry"/>
                </mxCell>
                <mxCell id="zqMLrcY-90uTSbGgyRzI-35" value="Room" style="ellipse;shape=doubleEllipse;margin=3;whiteSpace=wrap;html=1;align=center;fontFamily=Helvetica;fontSize=13;fontColor=default;strokeColor=default;fillColor=default;" parent="qdN79WPB_da_YeY-ibnM-1" vertex="1">
                    <mxGeometry x="750" y="850" width="100" height="40" as="geometry"/>
                </mxCell>
                <mxCell id="zqMLrcY-90uTSbGgyRzI-38" style="edgeStyle=none;html=1;fontSize=13;endArrow=none;endFill=0;" parent="qdN79WPB_da_YeY-ibnM-1" source="zqMLrcY-90uTSbGgyRzI-37" target="zqMLrcY-90uTSbGgyRzI-31" edge="1">
                    <mxGeometry relative="1" as="geometry"/>
                </mxCell>
                <mxCell id="zqMLrcY-90uTSbGgyRzI-37" value="Weekday" style="ellipse;shape=doubleEllipse;margin=3;whiteSpace=wrap;html=1;align=center;fontFamily=Helvetica;fontSize=13;fontColor=default;strokeColor=default;fillColor=default;" parent="qdN79WPB_da_YeY-ibnM-1" vertex="1">
                    <mxGeometry x="750" y="780" width="100" height="40" as="geometry"/>
                </mxCell>
                <mxCell id="1" style="edgeStyle=none;html=1;endArrow=none;endFill=0;" parent="qdN79WPB_da_YeY-ibnM-1" source="0" target="zqMLrcY-90uTSbGgyRzI-13" edge="1">
                    <mxGeometry relative="1" as="geometry"/>
                </mxCell>
                <mxCell id="0" value="Is_scaleup" style="ellipse;whiteSpace=wrap;html=1;align=center;fontSize=13;" parent="qdN79WPB_da_YeY-ibnM-1" vertex="1">
                    <mxGeometry x="450" y="780" width="100" height="40" as="geometry"/>
                </mxCell>
                <mxCell id="2" value="Period" style="whiteSpace=wrap;html=1;align=center;fontSize=13;" parent="qdN79WPB_da_YeY-ibnM-1" vertex="1">
                    <mxGeometry x="330" y="900" width="100" height="40" as="geometry"/>
                </mxCell>
                <mxCell id="8" style="edgeStyle=none;html=1;endArrow=none;endFill=0;" parent="qdN79WPB_da_YeY-ibnM-1" source="4" target="2" edge="1">
                    <mxGeometry relative="1" as="geometry"/>
                </mxCell>
                <mxCell id="4" value="Start_time" style="ellipse;whiteSpace=wrap;html=1;align=center;fontFamily=Helvetica;fontSize=13;fontColor=rgb(0, 0, 0);strokeColor=rgb(0, 0, 0);fillColor=rgb(255, 255, 255);" parent="qdN79WPB_da_YeY-ibnM-1" vertex="1">
                    <mxGeometry x="260" y="960" width="100" height="40" as="geometry"/>
                </mxCell>
                <mxCell id="7" style="edgeStyle=none;html=1;endArrow=none;endFill=0;" parent="qdN79WPB_da_YeY-ibnM-1" source="6" target="2" edge="1">
                    <mxGeometry relative="1" as="geometry"/>
                </mxCell>
                <mxCell id="6" value="ID" style="ellipse;whiteSpace=wrap;html=1;align=center;fontStyle=4;fontSize=13;" parent="qdN79WPB_da_YeY-ibnM-1" vertex="1">
                    <mxGeometry x="190" y="900" width="100" height="40" as="geometry"/>
                </mxCell>
                <mxCell id="10" style="edgeStyle=none;html=1;endArrow=none;endFill=0;" parent="qdN79WPB_da_YeY-ibnM-1" source="9" target="2" edge="1">
                    <mxGeometry relative="1" as="geometry"/>
                </mxCell>
                <mxCell id="9" value="End_time" style="ellipse;whiteSpace=wrap;html=1;align=center;fontFamily=Helvetica;fontSize=13;fontColor=rgb(0, 0, 0);strokeColor=rgb(0, 0, 0);fillColor=rgb(255, 255, 255);" parent="qdN79WPB_da_YeY-ibnM-1" vertex="1">
                    <mxGeometry x="390" y="960" width="100" height="40" as="geometry"/>
                </mxCell>
                <mxCell id="14" value="2" style="edgeStyle=none;html=1;endArrow=none;endFill=0;fontSize=13;" parent="qdN79WPB_da_YeY-ibnM-1" source="13" target="2" edge="1">
                    <mxGeometry x="-0.8545" y="-15" relative="1" as="geometry">
                        <mxPoint as="offset"/>
                    </mxGeometry>
                </mxCell>
                <mxCell id="13" value="schedule" style="shape=rhombus;perimeter=rhombusPerimeter;whiteSpace=wrap;html=1;align=center;fontSize=13;" parent="qdN79WPB_da_YeY-ibnM-1" vertex="1">
                    <mxGeometry x="320" y="660" width="120" height="60" as="geometry"/>
                </mxCell>
                <mxCell id="20" style="edgeStyle=none;html=1;fontSize=13;endArrow=none;endFill=0;" parent="qdN79WPB_da_YeY-ibnM-1" source="19" target="13" edge="1">
                    <mxGeometry relative="1" as="geometry"/>
                </mxCell>
                <mxCell id="19" value="Weekday" style="ellipse;whiteSpace=wrap;html=1;align=center;fontFamily=Helvetica;fontSize=13;fontColor=rgb(0, 0, 0);strokeColor=rgb(0, 0, 0);fillColor=rgb(255, 255, 255);" parent="qdN79WPB_da_YeY-ibnM-1" vertex="1">
                    <mxGeometry x="375" y="600" width="100" height="40" as="geometry"/>
                </mxCell>
                <mxCell id="26" style="edgeStyle=none;html=1;fontSize=13;endArrow=none;endFill=0;" parent="qdN79WPB_da_YeY-ibnM-1" source="21" target="24" edge="1">
                    <mxGeometry relative="1" as="geometry"/>
                </mxCell>
                <mxCell id="27" style="edgeStyle=none;html=1;fontSize=13;endArrow=none;endFill=0;" parent="qdN79WPB_da_YeY-ibnM-1" source="21" target="25" edge="1">
                    <mxGeometry relative="1" as="geometry"/>
                </mxCell>
                <mxCell id="21" value="Period" style="ellipse;shape=doubleEllipse;margin=3;whiteSpace=wrap;html=1;align=center;fontFamily=Helvetica;fontSize=13;fontColor=default;strokeColor=default;fillColor=default;" parent="qdN79WPB_da_YeY-ibnM-1" vertex="1">
                    <mxGeometry x="640" y="860" width="100" height="40" as="geometry"/>
                </mxCell>
                <mxCell id="24" value="Start" style="ellipse;whiteSpace=wrap;html=1;align=center;fontSize=13;" parent="qdN79WPB_da_YeY-ibnM-1" vertex="1">
                    <mxGeometry x="580" y="920" width="100" height="40" as="geometry"/>
                </mxCell>
                <mxCell id="25" value="End" style="ellipse;whiteSpace=wrap;html=1;align=center;fontSize=13;" parent="qdN79WPB_da_YeY-ibnM-1" vertex="1">
                    <mxGeometry x="700" y="920" width="100" height="40" as="geometry"/>
                </mxCell>
            </root>
        </mxGraphModel>
    </diagram>
    <diagram id="7C4vcjifVIoHzxjatEj8" name="Activity">
        <mxGraphModel dx="1216" dy="623" grid="1" gridSize="10" guides="1" tooltips="1" connect="1" arrows="1" fold="1" page="1" pageScale="1" pageWidth="850" pageHeight="1100" math="0" shadow="0">
            <root>
                <mxCell id="pWi7TLZlMp8lXqLm9T7j-0"/>
                <mxCell id="pWi7TLZlMp8lXqLm9T7j-1" parent="pWi7TLZlMp8lXqLm9T7j-0"/>
                <mxCell id="vHth21rvFv4Pau6wHOlY-3" value="Người dùng chung" style="swimlane;" parent="pWi7TLZlMp8lXqLm9T7j-1" vertex="1">
                    <mxGeometry x="40" y="40" width="240" height="950" as="geometry"/>
                </mxCell>
                <mxCell id="vq8obwQy0eZpqU_s_hOC-4" style="edgeStyle=orthogonalEdgeStyle;html=1;" parent="vHth21rvFv4Pau6wHOlY-3" source="vHth21rvFv4Pau6wHOlY-6" target="vHth21rvFv4Pau6wHOlY-9" edge="1">
                    <mxGeometry relative="1" as="geometry"/>
                </mxCell>
                <mxCell id="vHth21rvFv4Pau6wHOlY-6" value="" style="ellipse;fillColor=strokeColor;" parent="vHth21rvFv4Pau6wHOlY-3" vertex="1">
                    <mxGeometry x="105" y="60" width="30" height="30" as="geometry"/>
                </mxCell>
                <mxCell id="vHth21rvFv4Pau6wHOlY-9" value="Nhập dữ liệu" style="shape=rect;html=1;rounded=1;whiteSpace=wrap;align=center;" parent="vHth21rvFv4Pau6wHOlY-3" vertex="1">
                    <mxGeometry x="52.5" y="120" width="135" height="40" as="geometry"/>
                </mxCell>
                <mxCell id="vHth21rvFv4Pau6wHOlY-13" value="Khởi động engine" style="shape=rect;html=1;rounded=1;whiteSpace=wrap;align=center;" parent="vHth21rvFv4Pau6wHOlY-3" vertex="1">
                    <mxGeometry x="52.5" y="390" width="135" height="40" as="geometry"/>
                </mxCell>
                <mxCell id="vq8obwQy0eZpqU_s_hOC-16" style="edgeStyle=orthogonalEdgeStyle;html=1;" parent="vHth21rvFv4Pau6wHOlY-3" source="vHth21rvFv4Pau6wHOlY-17" target="vq8obwQy0eZpqU_s_hOC-0" edge="1">
                    <mxGeometry relative="1" as="geometry"/>
                </mxCell>
                <mxCell id="vHth21rvFv4Pau6wHOlY-17" value="Chỉnh sửa kết quả" style="shape=rect;html=1;rounded=1;whiteSpace=wrap;align=center;" parent="vHth21rvFv4Pau6wHOlY-3" vertex="1">
                    <mxGeometry x="52.5" y="650" width="135" height="40" as="geometry"/>
                </mxCell>
                <mxCell id="vq8obwQy0eZpqU_s_hOC-0" value="Lưu kết quả" style="shape=rect;html=1;rounded=1;whiteSpace=wrap;align=center;" parent="vHth21rvFv4Pau6wHOlY-3" vertex="1">
                    <mxGeometry x="52.5" y="730" width="135" height="40" as="geometry"/>
                </mxCell>
                <mxCell id="vq8obwQy0eZpqU_s_hOC-1" value="" style="ellipse;html=1;shape=endState;fillColor=strokeColor;" parent="vHth21rvFv4Pau6wHOlY-3" vertex="1">
                    <mxGeometry x="105" y="856" width="30" height="30" as="geometry"/>
                </mxCell>
                <mxCell id="vq8obwQy0eZpqU_s_hOC-8" style="edgeStyle=orthogonalEdgeStyle;html=1;" parent="vHth21rvFv4Pau6wHOlY-3" source="vHth21rvFv4Pau6wHOlY-12" target="vHth21rvFv4Pau6wHOlY-13" edge="1">
                    <mxGeometry relative="1" as="geometry"/>
                </mxCell>
                <mxCell id="vHth21rvFv4Pau6wHOlY-12" value="Chỉnh sửa ràng buộc" style="shape=rect;html=1;rounded=1;whiteSpace=wrap;align=center;" parent="vHth21rvFv4Pau6wHOlY-3" vertex="1">
                    <mxGeometry x="52.5" y="310" width="135" height="40" as="geometry"/>
                </mxCell>
                <mxCell id="vHth21rvFv4Pau6wHOlY-4" value="Server" style="swimlane;" parent="pWi7TLZlMp8lXqLm9T7j-1" vertex="1">
                    <mxGeometry x="280" y="40" width="240" height="950" as="geometry"/>
                </mxCell>
                <mxCell id="vq8obwQy0eZpqU_s_hOC-6" style="edgeStyle=orthogonalEdgeStyle;html=1;" parent="vHth21rvFv4Pau6wHOlY-4" source="vHth21rvFv4Pau6wHOlY-10" target="vHth21rvFv4Pau6wHOlY-11" edge="1">
                    <mxGeometry relative="1" as="geometry"/>
                </mxCell>
                <mxCell id="vHth21rvFv4Pau6wHOlY-10" value="Xử lý dữ liệu&lt;br&gt;xem trước" style="shape=rect;html=1;rounded=1;whiteSpace=wrap;align=center;" parent="vHth21rvFv4Pau6wHOlY-4" vertex="1">
                    <mxGeometry x="52.5" y="170" width="135" height="40" as="geometry"/>
                </mxCell>
                <mxCell id="vHth21rvFv4Pau6wHOlY-11" value="Xuất bản xem trước" style="shape=rect;html=1;rounded=1;whiteSpace=wrap;align=center;" parent="vHth21rvFv4Pau6wHOlY-4" vertex="1">
                    <mxGeometry x="52.5" y="250" width="135" height="40" as="geometry"/>
                </mxCell>
                <mxCell id="vHth21rvFv4Pau6wHOlY-16" value="Xuất danh sách &lt;br&gt;kết quả" style="shape=rect;html=1;rounded=1;whiteSpace=wrap;align=center;" parent="vHth21rvFv4Pau6wHOlY-4" vertex="1">
                    <mxGeometry x="52.5" y="590" width="135" height="40" as="geometry"/>
                </mxCell>
                <mxCell id="vq8obwQy0eZpqU_s_hOC-2" value="Xuất dữ liệu&lt;br&gt;sang file Excel" style="shape=rect;html=1;rounded=1;whiteSpace=wrap;align=center;" parent="vHth21rvFv4Pau6wHOlY-4" vertex="1">
                    <mxGeometry x="52.5" y="790" width="135" height="40" as="geometry"/>
                </mxCell>
                <mxCell id="vHth21rvFv4Pau6wHOlY-14" value="Xử lý dữ liệu&lt;br&gt;đầu vào engine" style="shape=rect;html=1;rounded=1;whiteSpace=wrap;align=center;" parent="vHth21rvFv4Pau6wHOlY-4" vertex="1">
                    <mxGeometry x="52.5" y="450" width="135" height="40" as="geometry"/>
                </mxCell>
                <mxCell id="vHth21rvFv4Pau6wHOlY-5" value="Engine" style="swimlane;" parent="pWi7TLZlMp8lXqLm9T7j-1" vertex="1">
                    <mxGeometry x="520" y="40" width="240" height="950" as="geometry"/>
                </mxCell>
                <mxCell id="vq8obwQy0eZpqU_s_hOC-10" style="edgeStyle=orthogonalEdgeStyle;html=1;" parent="vHth21rvFv4Pau6wHOlY-5" source="vq8obwQy0eZpqU_s_hOC-11" target="vHth21rvFv4Pau6wHOlY-15" edge="1">
                    <mxGeometry relative="1" as="geometry"/>
                </mxCell>
                <mxCell id="vHth21rvFv4Pau6wHOlY-15" value="Trả về danh sách &lt;br&gt;kết quả" style="shape=rect;html=1;rounded=1;whiteSpace=wrap;align=center;" parent="vHth21rvFv4Pau6wHOlY-5" vertex="1">
                    <mxGeometry x="52.5" y="530" width="135" height="40" as="geometry"/>
                </mxCell>
                <mxCell id="vq8obwQy0eZpqU_s_hOC-11" value="Xếp thời khóa biểu" style="shape=rect;html=1;rounded=1;whiteSpace=wrap;align=center;" parent="vHth21rvFv4Pau6wHOlY-5" vertex="1">
                    <mxGeometry x="52.5" y="450" width="135" height="40" as="geometry"/>
                </mxCell>
                <mxCell id="vq8obwQy0eZpqU_s_hOC-3" style="edgeStyle=orthogonalEdgeStyle;html=1;" parent="pWi7TLZlMp8lXqLm9T7j-1" source="vq8obwQy0eZpqU_s_hOC-2" target="vq8obwQy0eZpqU_s_hOC-1" edge="1">
                    <mxGeometry relative="1" as="geometry">
                        <Array as="points">
                            <mxPoint x="400" y="910"/>
                        </Array>
                    </mxGeometry>
                </mxCell>
                <mxCell id="vq8obwQy0eZpqU_s_hOC-5" style="edgeStyle=orthogonalEdgeStyle;html=1;" parent="pWi7TLZlMp8lXqLm9T7j-1" source="vHth21rvFv4Pau6wHOlY-9" target="vHth21rvFv4Pau6wHOlY-10" edge="1">
                    <mxGeometry relative="1" as="geometry">
                        <Array as="points">
                            <mxPoint x="160" y="230"/>
                            <mxPoint x="400" y="230"/>
                        </Array>
                    </mxGeometry>
                </mxCell>
                <mxCell id="vq8obwQy0eZpqU_s_hOC-7" style="edgeStyle=orthogonalEdgeStyle;html=1;" parent="pWi7TLZlMp8lXqLm9T7j-1" source="vHth21rvFv4Pau6wHOlY-11" target="vHth21rvFv4Pau6wHOlY-12" edge="1">
                    <mxGeometry relative="1" as="geometry">
                        <Array as="points">
                            <mxPoint x="400" y="370"/>
                        </Array>
                    </mxGeometry>
                </mxCell>
                <mxCell id="vq8obwQy0eZpqU_s_hOC-9" style="edgeStyle=orthogonalEdgeStyle;html=1;" parent="pWi7TLZlMp8lXqLm9T7j-1" source="vHth21rvFv4Pau6wHOlY-13" target="vHth21rvFv4Pau6wHOlY-14" edge="1">
                    <mxGeometry relative="1" as="geometry">
                        <Array as="points">
                            <mxPoint x="160" y="510"/>
                        </Array>
                    </mxGeometry>
                </mxCell>
                <mxCell id="vq8obwQy0eZpqU_s_hOC-13" style="edgeStyle=orthogonalEdgeStyle;html=1;" parent="pWi7TLZlMp8lXqLm9T7j-1" source="vHth21rvFv4Pau6wHOlY-14" target="vq8obwQy0eZpqU_s_hOC-11" edge="1">
                    <mxGeometry relative="1" as="geometry"/>
                </mxCell>
                <mxCell id="vq8obwQy0eZpqU_s_hOC-14" style="edgeStyle=orthogonalEdgeStyle;html=1;" parent="pWi7TLZlMp8lXqLm9T7j-1" source="vHth21rvFv4Pau6wHOlY-15" target="vHth21rvFv4Pau6wHOlY-16" edge="1">
                    <mxGeometry relative="1" as="geometry">
                        <Array as="points">
                            <mxPoint x="640" y="650"/>
                        </Array>
                    </mxGeometry>
                </mxCell>
                <mxCell id="vq8obwQy0eZpqU_s_hOC-15" style="edgeStyle=orthogonalEdgeStyle;html=1;" parent="pWi7TLZlMp8lXqLm9T7j-1" source="vHth21rvFv4Pau6wHOlY-16" target="vHth21rvFv4Pau6wHOlY-17" edge="1">
                    <mxGeometry relative="1" as="geometry">
                        <Array as="points">
                            <mxPoint x="400" y="710"/>
                            <mxPoint x="160" y="710"/>
                        </Array>
                    </mxGeometry>
                </mxCell>
                <mxCell id="vq8obwQy0eZpqU_s_hOC-17" style="edgeStyle=orthogonalEdgeStyle;html=1;" parent="pWi7TLZlMp8lXqLm9T7j-1" source="vq8obwQy0eZpqU_s_hOC-0" target="vq8obwQy0eZpqU_s_hOC-2" edge="1">
                    <mxGeometry relative="1" as="geometry">
                        <Array as="points">
                            <mxPoint x="160" y="850"/>
                        </Array>
                    </mxGeometry>
                </mxCell>
            </root>
        </mxGraphModel>
    </diagram>
    <diagram id="587x2xG6NyxYo2u7fGXb" name="UseCase">
        <mxGraphModel dx="1216" dy="623" grid="1" gridSize="10" guides="1" tooltips="1" connect="1" arrows="1" fold="1" page="1" pageScale="1" pageWidth="850" pageHeight="1100" math="0" shadow="0">
            <root>
                <mxCell id="XIz-JVA36TiXdWFHkt55-0"/>
                <mxCell id="XIz-JVA36TiXdWFHkt55-1" parent="XIz-JVA36TiXdWFHkt55-0"/>
                <mxCell id="iVYoKLLnhj31gtZP2qN0-0" value="Công cụ xếp thời khóa biểu mở rộng" style="shape=umlFrame;whiteSpace=wrap;html=1;width=230;height=30;boundedLbl=1;verticalAlign=middle;align=left;spacingLeft=5;fontSize=13;" parent="XIz-JVA36TiXdWFHkt55-1" vertex="1">
                    <mxGeometry x="150" y="30" width="575" height="900" as="geometry"/>
                </mxCell>
                <mxCell id="JJEnDhQR__SJ42kjKvhq-6" style="edgeStyle=none;html=1;endArrow=classic;endFill=1;sourcePerimeterSpacing=0;targetPerimeterSpacing=0;exitX=1;exitY=0.3333333333333333;exitDx=0;exitDy=0;exitPerimeter=0;" parent="XIz-JVA36TiXdWFHkt55-1" source="UYmf6STpeNgvULalQ2e--2" target="iVYoKLLnhj31gtZP2qN0-1" edge="1">
                    <mxGeometry relative="1" as="geometry">
                        <mxPoint x="110" y="140" as="sourcePoint"/>
                    </mxGeometry>
                </mxCell>
                <mxCell id="JJEnDhQR__SJ42kjKvhq-7" style="html=1;endArrow=classic;endFill=1;sourcePerimeterSpacing=0;targetPerimeterSpacing=0;exitX=1;exitY=0.3333333333333333;exitDx=0;exitDy=0;exitPerimeter=0;curved=1;" parent="XIz-JVA36TiXdWFHkt55-1" source="UYmf6STpeNgvULalQ2e--2" target="UYmf6STpeNgvULalQ2e--8" edge="1">
                    <mxGeometry relative="1" as="geometry">
                        <mxPoint x="110" y="140" as="sourcePoint"/>
                        <Array as="points">
                            <mxPoint x="240" y="130"/>
                        </Array>
                    </mxGeometry>
                </mxCell>
                <mxCell id="JJEnDhQR__SJ42kjKvhq-8" value="&lt;span style=&quot;border-color: var(--border-color); color: rgb(0, 0, 0); font-family: Helvetica; font-style: normal; font-variant-ligatures: normal; font-variant-caps: normal; font-weight: 400; letter-spacing: normal; orphans: 2; text-align: center; text-indent: 0px; text-transform: none; widows: 2; word-spacing: 0px; -webkit-text-stroke-width: 0px; text-decoration-thickness: initial; text-decoration-style: initial; text-decoration-color: initial; font-size: 13px; background-color: rgb(248, 249, 250);&quot;&gt;«&lt;/span&gt;&lt;span style=&quot;border-color: var(--border-color); color: rgb(0, 0, 0); font-family: Helvetica; font-style: normal; font-variant-ligatures: normal; font-variant-caps: normal; font-weight: 400; letter-spacing: normal; orphans: 2; text-align: center; text-indent: 0px; text-transform: none; widows: 2; word-spacing: 0px; -webkit-text-stroke-width: 0px; text-decoration-thickness: initial; text-decoration-style: initial; text-decoration-color: initial; font-size: 13px; background-color: rgb(255, 255, 255);&quot;&gt;extend&lt;/span&gt;&lt;span style=&quot;border-color: var(--border-color); color: rgb(0, 0, 0); font-family: Helvetica; font-style: normal; font-variant-ligatures: normal; font-variant-caps: normal; font-weight: 400; letter-spacing: normal; orphans: 2; text-align: center; text-indent: 0px; text-transform: none; widows: 2; word-spacing: 0px; -webkit-text-stroke-width: 0px; text-decoration-thickness: initial; text-decoration-style: initial; text-decoration-color: initial; font-size: 13px; background-color: rgb(248, 249, 250);&quot;&gt;»&lt;/span&gt;" style="edgeStyle=none;html=1;endArrow=open;endFill=0;sourcePerimeterSpacing=0;targetPerimeterSpacing=0;dashed=1;" parent="XIz-JVA36TiXdWFHkt55-1" source="QA0Pk8UL0St9M8RbuLVv-0" target="UYmf6STpeNgvULalQ2e--8" edge="1">
                    <mxGeometry x="0.04" y="37" relative="1" as="geometry">
                        <mxPoint x="110" y="140" as="sourcePoint"/>
                        <mxPoint as="offset"/>
                    </mxGeometry>
                </mxCell>
                <mxCell id="JJEnDhQR__SJ42kjKvhq-12" style="html=1;endArrow=classic;endFill=1;sourcePerimeterSpacing=0;targetPerimeterSpacing=0;exitX=1;exitY=0.3333333333333333;exitDx=0;exitDy=0;exitPerimeter=0;elbow=vertical;curved=1;" parent="XIz-JVA36TiXdWFHkt55-1" source="UYmf6STpeNgvULalQ2e--2" target="UYmf6STpeNgvULalQ2e--10" edge="1">
                    <mxGeometry relative="1" as="geometry">
                        <Array as="points">
                            <mxPoint x="250" y="140"/>
                            <mxPoint x="250" y="570"/>
                        </Array>
                    </mxGeometry>
                </mxCell>
                <mxCell id="JJEnDhQR__SJ42kjKvhq-18" style="edgeStyle=none;curved=1;html=1;startArrow=none;startFill=0;endArrow=classic;endFill=1;sourcePerimeterSpacing=0;targetPerimeterSpacing=0;elbow=vertical;exitX=1;exitY=0.3333333333333333;exitDx=0;exitDy=0;exitPerimeter=0;" parent="XIz-JVA36TiXdWFHkt55-1" source="UYmf6STpeNgvULalQ2e--2" target="JJEnDhQR__SJ42kjKvhq-13" edge="1">
                    <mxGeometry relative="1" as="geometry">
                        <Array as="points">
                            <mxPoint x="220" y="150"/>
                            <mxPoint x="220" y="720"/>
                        </Array>
                    </mxGeometry>
                </mxCell>
                <mxCell id="UYmf6STpeNgvULalQ2e--2" value="Người dùng&lt;br&gt;chung" style="shape=umlActor;verticalLabelPosition=bottom;verticalAlign=top;html=1;outlineConnect=0;fontSize=13;" parent="XIz-JVA36TiXdWFHkt55-1" vertex="1">
                    <mxGeometry x="40" y="91" width="30" height="72" as="geometry"/>
                </mxCell>
                <mxCell id="iVYoKLLnhj31gtZP2qN0-1" value="Nhập dữ liệu" style="ellipse;whiteSpace=wrap;html=1;fontSize=13;" parent="XIz-JVA36TiXdWFHkt55-1" vertex="1">
                    <mxGeometry x="520" y="80" width="140" height="70" as="geometry"/>
                </mxCell>
                <mxCell id="JJEnDhQR__SJ42kjKvhq-1" style="html=1;dashed=1;endArrow=open;endFill=0;edgeStyle=orthogonalEdgeStyle;curved=1;entryX=0;entryY=1;entryDx=0;entryDy=0;" parent="XIz-JVA36TiXdWFHkt55-1" source="UYmf6STpeNgvULalQ2e--8" target="iVYoKLLnhj31gtZP2qN0-1" edge="1">
                    <mxGeometry relative="1" as="geometry"/>
                </mxCell>
                <mxCell id="JJEnDhQR__SJ42kjKvhq-2" value="&lt;span style=&quot;border-color: var(--border-color); font-size: 13px; background-color: rgb(248, 249, 250);&quot;&gt;«&lt;/span&gt;&lt;span style=&quot;font-size: 13px;&quot;&gt;include&lt;/span&gt;&lt;span style=&quot;border-color: var(--border-color); font-size: 13px; background-color: rgb(248, 249, 250);&quot;&gt;»&lt;/span&gt;" style="edgeLabel;html=1;align=center;verticalAlign=middle;resizable=0;points=[];" parent="JJEnDhQR__SJ42kjKvhq-1" vertex="1" connectable="0">
                    <mxGeometry x="0.2548" relative="1" as="geometry">
                        <mxPoint x="-60" y="-9" as="offset"/>
                    </mxGeometry>
                </mxCell>
                <mxCell id="UYmf6STpeNgvULalQ2e--8" value="&lt;span style=&quot;font-size: 13px&quot;&gt;Xem trước&lt;br style=&quot;font-size: 13px;&quot;&gt;dữ liệu hiện tại&lt;/span&gt;" style="ellipse;whiteSpace=wrap;html=1;fontSize=13;" parent="XIz-JVA36TiXdWFHkt55-1" vertex="1">
                    <mxGeometry x="299" y="190" width="140" height="70" as="geometry"/>
                </mxCell>
                <mxCell id="adm2k-GRGetHg22DAxQq-0" value="&lt;span style=&quot;background-color: rgb(248 , 249 , 250)&quot;&gt;«&lt;/span&gt;extend&lt;span style=&quot;background-color: rgb(248 , 249 , 250)&quot;&gt;»&lt;/span&gt;" style="html=1;fontSize=13;endArrow=none;endFill=0;sourcePerimeterSpacing=0;dashed=1;startArrow=open;startFill=0;curved=1;" parent="XIz-JVA36TiXdWFHkt55-1" source="UYmf6STpeNgvULalQ2e--10" target="UYmf6STpeNgvULalQ2e--9" edge="1">
                    <mxGeometry x="0.166" y="10" relative="1" as="geometry">
                        <mxPoint as="offset"/>
                        <Array as="points">
                            <mxPoint x="560" y="570"/>
                        </Array>
                    </mxGeometry>
                </mxCell>
                <mxCell id="UYmf6STpeNgvULalQ2e--9" value="Lưu kết quả" style="ellipse;whiteSpace=wrap;html=1;fontSize=13;" parent="XIz-JVA36TiXdWFHkt55-1" vertex="1">
                    <mxGeometry x="490" y="775" width="140" height="70" as="geometry"/>
                </mxCell>
                <mxCell id="JJEnDhQR__SJ42kjKvhq-15" style="edgeStyle=none;html=1;endArrow=classic;endFill=1;sourcePerimeterSpacing=0;targetPerimeterSpacing=0;elbow=vertical;" parent="XIz-JVA36TiXdWFHkt55-1" source="UYmf6STpeNgvULalQ2e--10" target="qSx25sOS3FNYRD_hHq6--0" edge="1">
                    <mxGeometry relative="1" as="geometry"/>
                </mxCell>
                <mxCell id="UYmf6STpeNgvULalQ2e--10" value="Xuất kết quả" style="ellipse;whiteSpace=wrap;html=1;fontSize=13;" parent="XIz-JVA36TiXdWFHkt55-1" vertex="1">
                    <mxGeometry x="299" y="540" width="140" height="70" as="geometry"/>
                </mxCell>
                <mxCell id="JJEnDhQR__SJ42kjKvhq-3" value="&lt;span style=&quot;border-color: var(--border-color); color: rgb(0, 0, 0); font-family: Helvetica; font-style: normal; font-variant-ligatures: normal; font-variant-caps: normal; font-weight: 400; letter-spacing: normal; orphans: 2; text-align: center; text-indent: 0px; text-transform: none; widows: 2; word-spacing: 0px; -webkit-text-stroke-width: 0px; text-decoration-thickness: initial; text-decoration-style: initial; text-decoration-color: initial; font-size: 13px; background-color: rgb(248, 249, 250);&quot;&gt;«&lt;/span&gt;&lt;span style=&quot;border-color: var(--border-color); color: rgb(0, 0, 0); font-family: Helvetica; font-style: normal; font-variant-ligatures: normal; font-variant-caps: normal; font-weight: 400; letter-spacing: normal; orphans: 2; text-align: center; text-indent: 0px; text-transform: none; widows: 2; word-spacing: 0px; -webkit-text-stroke-width: 0px; text-decoration-thickness: initial; text-decoration-style: initial; text-decoration-color: initial; font-size: 13px;&quot;&gt;include&lt;/span&gt;&lt;span style=&quot;border-color: var(--border-color); color: rgb(0, 0, 0); font-family: Helvetica; font-style: normal; font-variant-ligatures: normal; font-variant-caps: normal; font-weight: 400; letter-spacing: normal; orphans: 2; text-align: center; text-indent: 0px; text-transform: none; widows: 2; word-spacing: 0px; -webkit-text-stroke-width: 0px; text-decoration-thickness: initial; text-decoration-style: initial; text-decoration-color: initial; font-size: 13px; background-color: rgb(248, 249, 250);&quot;&gt;»&lt;/span&gt;" style="html=1;dashed=1;endArrow=open;endFill=0;exitX=1;exitY=0;exitDx=0;exitDy=0;edgeStyle=orthogonalEdgeStyle;curved=1;entryX=0.324;entryY=0.967;entryDx=0;entryDy=0;entryPerimeter=0;" parent="XIz-JVA36TiXdWFHkt55-1" source="QA0Pk8UL0St9M8RbuLVv-0" target="iVYoKLLnhj31gtZP2qN0-1" edge="1">
                    <mxGeometry x="-0.6152" y="30" relative="1" as="geometry">
                        <mxPoint as="offset"/>
                    </mxGeometry>
                </mxCell>
                <mxCell id="QA0Pk8UL0St9M8RbuLVv-0" value="Chỉnh sửa&lt;br&gt;ràng buộc" style="ellipse;whiteSpace=wrap;html=1;fontSize=13;" parent="XIz-JVA36TiXdWFHkt55-1" vertex="1">
                    <mxGeometry x="299" y="310" width="140" height="70" as="geometry"/>
                </mxCell>
                <mxCell id="JJEnDhQR__SJ42kjKvhq-9" style="edgeStyle=orthogonalEdgeStyle;html=1;endArrow=open;endFill=0;sourcePerimeterSpacing=0;targetPerimeterSpacing=0;dashed=1;curved=1;" parent="XIz-JVA36TiXdWFHkt55-1" source="qSx25sOS3FNYRD_hHq6--0" target="iVYoKLLnhj31gtZP2qN0-1" edge="1">
                    <mxGeometry relative="1" as="geometry">
                        <Array as="points">
                            <mxPoint x="590" y="455"/>
                        </Array>
                    </mxGeometry>
                </mxCell>
                <mxCell id="JJEnDhQR__SJ42kjKvhq-10" value="&lt;span style=&quot;border-color: var(--border-color); font-size: 13px; background-color: rgb(248, 249, 250);&quot;&gt;«&lt;/span&gt;&lt;span style=&quot;border-color: var(--border-color); font-size: 13px;&quot;&gt;include&lt;/span&gt;&lt;span style=&quot;border-color: var(--border-color); font-size: 13px; background-color: rgb(248, 249, 250);&quot;&gt;»&lt;/span&gt;" style="edgeLabel;html=1;align=center;verticalAlign=middle;resizable=0;points=[];" parent="JJEnDhQR__SJ42kjKvhq-9" vertex="1" connectable="0">
                    <mxGeometry x="0.1448" relative="1" as="geometry">
                        <mxPoint x="-110" y="78" as="offset"/>
                    </mxGeometry>
                </mxCell>
                <mxCell id="qSx25sOS3FNYRD_hHq6--0" value="Chạy engine xếp&lt;br&gt;thời khóa biểu" style="ellipse;whiteSpace=wrap;html=1;fontSize=13;" parent="XIz-JVA36TiXdWFHkt55-1" vertex="1">
                    <mxGeometry x="299" y="420" width="140" height="70" as="geometry"/>
                </mxCell>
                <mxCell id="JJEnDhQR__SJ42kjKvhq-5" style="edgeStyle=none;html=1;endArrow=block;endFill=0;targetPerimeterSpacing=50;sourcePerimeterSpacing=15;" parent="XIz-JVA36TiXdWFHkt55-1" source="JJEnDhQR__SJ42kjKvhq-4" target="UYmf6STpeNgvULalQ2e--2" edge="1">
                    <mxGeometry relative="1" as="geometry"/>
                </mxCell>
                <mxCell id="JJEnDhQR__SJ42kjKvhq-11" style="html=1;endArrow=classic;endFill=1;sourcePerimeterSpacing=0;targetPerimeterSpacing=0;exitX=1;exitY=0.3333333333333333;exitDx=0;exitDy=0;exitPerimeter=0;" parent="XIz-JVA36TiXdWFHkt55-1" source="JJEnDhQR__SJ42kjKvhq-4" target="UYmf6STpeNgvULalQ2e--9" edge="1">
                    <mxGeometry relative="1" as="geometry">
                        <mxPoint x="100" y="810" as="sourcePoint"/>
                    </mxGeometry>
                </mxCell>
                <mxCell id="JJEnDhQR__SJ42kjKvhq-4" value="Quản trị viên" style="shape=umlActor;verticalLabelPosition=bottom;verticalAlign=top;html=1;outlineConnect=0;fontSize=13;" parent="XIz-JVA36TiXdWFHkt55-1" vertex="1">
                    <mxGeometry x="40" y="790" width="30" height="60" as="geometry"/>
                </mxCell>
                <mxCell id="JJEnDhQR__SJ42kjKvhq-17" value="&lt;span style=&quot;border-color: var(--border-color); color: rgb(0, 0, 0); font-family: Helvetica; font-style: normal; font-variant-ligatures: normal; font-variant-caps: normal; font-weight: 400; letter-spacing: normal; orphans: 2; text-align: center; text-indent: 0px; text-transform: none; widows: 2; word-spacing: 0px; -webkit-text-stroke-width: 0px; text-decoration-thickness: initial; text-decoration-style: initial; text-decoration-color: initial; font-size: 13px; background-color: rgb(248, 249, 250);&quot;&gt;«&lt;/span&gt;&lt;span style=&quot;border-color: var(--border-color); color: rgb(0, 0, 0); font-family: Helvetica; font-style: normal; font-variant-ligatures: normal; font-variant-caps: normal; font-weight: 400; letter-spacing: normal; orphans: 2; text-align: center; text-indent: 0px; text-transform: none; widows: 2; word-spacing: 0px; -webkit-text-stroke-width: 0px; text-decoration-thickness: initial; text-decoration-style: initial; text-decoration-color: initial; font-size: 13px; background-color: rgb(255, 255, 255);&quot;&gt;include&lt;/span&gt;&lt;span style=&quot;border-color: var(--border-color); color: rgb(0, 0, 0); font-family: Helvetica; font-style: normal; font-variant-ligatures: normal; font-variant-caps: normal; font-weight: 400; letter-spacing: normal; orphans: 2; text-align: center; text-indent: 0px; text-transform: none; widows: 2; word-spacing: 0px; -webkit-text-stroke-width: 0px; text-decoration-thickness: initial; text-decoration-style: initial; text-decoration-color: initial; font-size: 13px; background-color: rgb(248, 249, 250);&quot;&gt;»&lt;/span&gt;" style="edgeStyle=none;curved=1;html=1;endArrow=open;endFill=0;sourcePerimeterSpacing=0;targetPerimeterSpacing=0;elbow=vertical;dashed=1;startArrow=none;startFill=0;" parent="XIz-JVA36TiXdWFHkt55-1" source="JJEnDhQR__SJ42kjKvhq-13" target="UYmf6STpeNgvULalQ2e--10" edge="1">
                    <mxGeometry x="0.0286" y="-34" relative="1" as="geometry">
                        <mxPoint as="offset"/>
                    </mxGeometry>
                </mxCell>
                <mxCell id="JJEnDhQR__SJ42kjKvhq-13" value="Chỉnh sửa kết quả" style="ellipse;whiteSpace=wrap;html=1;fontSize=13;" parent="XIz-JVA36TiXdWFHkt55-1" vertex="1">
                    <mxGeometry x="299" y="680" width="140" height="70" as="geometry"/>
                </mxCell>
            </root>
        </mxGraphModel>
    </diagram>
    <diagram id="SRbB0dG9EXBg2y-H8GNL" name="Deployment">
        <mxGraphModel dx="1216" dy="623" grid="1" gridSize="10" guides="1" tooltips="1" connect="1" arrows="1" fold="1" page="1" pageScale="1" pageWidth="850" pageHeight="1100" math="0" shadow="0">
            <root>
                <mxCell id="4VOJzvU2yDU-TaqRpCgs-0"/>
                <mxCell id="4VOJzvU2yDU-TaqRpCgs-1" parent="4VOJzvU2yDU-TaqRpCgs-0"/>
                <mxCell id="vogwDiftUANBzrayFFSF-0" value="Services" style="shape=umlFrame;whiteSpace=wrap;html=1;width=230;height=30;boundedLbl=1;verticalAlign=middle;align=left;spacingLeft=5;fontSize=13;" parent="4VOJzvU2yDU-TaqRpCgs-1" vertex="1">
                    <mxGeometry x="660" y="10" width="370" height="610" as="geometry"/>
                </mxCell>
                <mxCell id="vogwDiftUANBzrayFFSF-3" style="edgeStyle=none;html=1;entryX=0;entryY=0.5;entryDx=0;entryDy=0;" parent="4VOJzvU2yDU-TaqRpCgs-1" source="figR7p8En3ts2fxTFGGV-2" target="TS3mEoWIAfFGIWNx6q9l-0" edge="1">
                    <mxGeometry relative="1" as="geometry"/>
                </mxCell>
                <mxCell id="figR7p8En3ts2fxTFGGV-2" value="Desktop Portal" style="html=1;dropTarget=0;" parent="4VOJzvU2yDU-TaqRpCgs-1" vertex="1">
                    <mxGeometry x="190" y="260" width="180" height="90" as="geometry"/>
                </mxCell>
                <mxCell id="figR7p8En3ts2fxTFGGV-3" value="" style="shape=module;jettyWidth=8;jettyHeight=4;" parent="figR7p8En3ts2fxTFGGV-2" vertex="1">
                    <mxGeometry x="1" width="20" height="20" relative="1" as="geometry">
                        <mxPoint x="-27" y="7" as="offset"/>
                    </mxGeometry>
                </mxCell>
                <mxCell id="vogwDiftUANBzrayFFSF-4" style="edgeStyle=none;html=1;entryX=0;entryY=0.5;entryDx=0;entryDy=0;exitX=1;exitY=0.5;exitDx=0;exitDy=0;" parent="4VOJzvU2yDU-TaqRpCgs-1" source="TS3mEoWIAfFGIWNx6q9l-0" target="vogwDiftUANBzrayFFSF-1" edge="1">
                    <mxGeometry relative="1" as="geometry"/>
                </mxCell>
                <mxCell id="TS3mEoWIAfFGIWNx6q9l-0" value="Backend Server" style="html=1;dropTarget=0;" parent="4VOJzvU2yDU-TaqRpCgs-1" vertex="1">
                    <mxGeometry x="450" y="260" width="180" height="90" as="geometry"/>
                </mxCell>
                <mxCell id="TS3mEoWIAfFGIWNx6q9l-1" value="" style="shape=module;jettyWidth=8;jettyHeight=4;" parent="TS3mEoWIAfFGIWNx6q9l-0" vertex="1">
                    <mxGeometry x="1" width="20" height="20" relative="1" as="geometry">
                        <mxPoint x="-27" y="7" as="offset"/>
                    </mxGeometry>
                </mxCell>
                <mxCell id="TS3mEoWIAfFGIWNx6q9l-4" value="Engine" style="html=1;dropTarget=0;" parent="4VOJzvU2yDU-TaqRpCgs-1" vertex="1">
                    <mxGeometry x="760" y="460" width="180" height="90" as="geometry"/>
                </mxCell>
                <mxCell id="TS3mEoWIAfFGIWNx6q9l-5" value="" style="shape=module;jettyWidth=8;jettyHeight=4;" parent="TS3mEoWIAfFGIWNx6q9l-4" vertex="1">
                    <mxGeometry x="1" width="20" height="20" relative="1" as="geometry">
                        <mxPoint x="-27" y="7" as="offset"/>
                    </mxGeometry>
                </mxCell>
                <mxCell id="TS3mEoWIAfFGIWNx6q9l-6" value="DB Worker" style="html=1;dropTarget=0;" parent="4VOJzvU2yDU-TaqRpCgs-1" vertex="1">
                    <mxGeometry x="760" y="240" width="180" height="90" as="geometry"/>
                </mxCell>
                <mxCell id="TS3mEoWIAfFGIWNx6q9l-7" value="" style="shape=module;jettyWidth=8;jettyHeight=4;" parent="TS3mEoWIAfFGIWNx6q9l-6" vertex="1">
                    <mxGeometry x="1" width="20" height="20" relative="1" as="geometry">
                        <mxPoint x="-27" y="7" as="offset"/>
                    </mxGeometry>
                </mxCell>
                <mxCell id="TS3mEoWIAfFGIWNx6q9l-8" value="Printer" style="html=1;dropTarget=0;" parent="4VOJzvU2yDU-TaqRpCgs-1" vertex="1">
                    <mxGeometry x="760" y="350" width="180" height="90" as="geometry"/>
                </mxCell>
                <mxCell id="TS3mEoWIAfFGIWNx6q9l-9" value="" style="shape=module;jettyWidth=8;jettyHeight=4;" parent="TS3mEoWIAfFGIWNx6q9l-8" vertex="1">
                    <mxGeometry x="1" width="20" height="20" relative="1" as="geometry">
                        <mxPoint x="-27" y="7" as="offset"/>
                    </mxGeometry>
                </mxCell>
                <mxCell id="TS3mEoWIAfFGIWNx6q9l-2" value="Database server" style="html=1;dropTarget=0;" parent="4VOJzvU2yDU-TaqRpCgs-1" vertex="1">
                    <mxGeometry x="1070" y="240" width="180" height="90" as="geometry"/>
                </mxCell>
                <mxCell id="TS3mEoWIAfFGIWNx6q9l-3" value="" style="shape=module;jettyWidth=8;jettyHeight=4;" parent="TS3mEoWIAfFGIWNx6q9l-2" vertex="1">
                    <mxGeometry x="1" width="20" height="20" relative="1" as="geometry">
                        <mxPoint x="-27" y="7" as="offset"/>
                    </mxGeometry>
                </mxCell>
                <mxCell id="vogwDiftUANBzrayFFSF-1" value="Auth0" style="html=1;dropTarget=0;" parent="4VOJzvU2yDU-TaqRpCgs-1" vertex="1">
                    <mxGeometry x="760" y="120" width="180" height="90" as="geometry"/>
                </mxCell>
                <mxCell id="vogwDiftUANBzrayFFSF-2" value="" style="shape=module;jettyWidth=8;jettyHeight=4;" parent="vogwDiftUANBzrayFFSF-1" vertex="1">
                    <mxGeometry x="1" width="20" height="20" relative="1" as="geometry">
                        <mxPoint x="-27" y="7" as="offset"/>
                    </mxGeometry>
                </mxCell>
                <mxCell id="vogwDiftUANBzrayFFSF-5" style="edgeStyle=none;html=1;entryX=0;entryY=0.5;entryDx=0;entryDy=0;exitX=1;exitY=0.5;exitDx=0;exitDy=0;" parent="4VOJzvU2yDU-TaqRpCgs-1" source="TS3mEoWIAfFGIWNx6q9l-0" target="TS3mEoWIAfFGIWNx6q9l-6" edge="1">
                    <mxGeometry relative="1" as="geometry">
                        <mxPoint x="640" y="315" as="sourcePoint"/>
                        <mxPoint x="770" y="185" as="targetPoint"/>
                    </mxGeometry>
                </mxCell>
                <mxCell id="vogwDiftUANBzrayFFSF-6" style="edgeStyle=none;html=1;entryX=0;entryY=0.5;entryDx=0;entryDy=0;exitX=1;exitY=0.5;exitDx=0;exitDy=0;" parent="4VOJzvU2yDU-TaqRpCgs-1" source="TS3mEoWIAfFGIWNx6q9l-0" target="TS3mEoWIAfFGIWNx6q9l-8" edge="1">
                    <mxGeometry relative="1" as="geometry">
                        <mxPoint x="630" y="310" as="sourcePoint"/>
                        <mxPoint x="780" y="195" as="targetPoint"/>
                    </mxGeometry>
                </mxCell>
                <mxCell id="vogwDiftUANBzrayFFSF-7" style="edgeStyle=none;html=1;entryX=0;entryY=0.5;entryDx=0;entryDy=0;exitX=1;exitY=0.5;exitDx=0;exitDy=0;" parent="4VOJzvU2yDU-TaqRpCgs-1" source="TS3mEoWIAfFGIWNx6q9l-0" target="TS3mEoWIAfFGIWNx6q9l-4" edge="1">
                    <mxGeometry relative="1" as="geometry">
                        <mxPoint x="660" y="335" as="sourcePoint"/>
                        <mxPoint x="790" y="205" as="targetPoint"/>
                    </mxGeometry>
                </mxCell>
                <mxCell id="vogwDiftUANBzrayFFSF-8" style="edgeStyle=none;html=1;entryX=0;entryY=0.5;entryDx=0;entryDy=0;exitX=1;exitY=0.5;exitDx=0;exitDy=0;" parent="4VOJzvU2yDU-TaqRpCgs-1" source="TS3mEoWIAfFGIWNx6q9l-6" target="TS3mEoWIAfFGIWNx6q9l-2" edge="1">
                    <mxGeometry relative="1" as="geometry">
                        <mxPoint x="640" y="315" as="sourcePoint"/>
                        <mxPoint x="770" y="295" as="targetPoint"/>
                    </mxGeometry>
                </mxCell>
            </root>
        </mxGraphModel>
    </diagram>
    <diagram id="awF3gn0L31-w2kD-zowK" name="Page-1">
        <mxGraphModel dx="1216" dy="623" grid="1" gridSize="10" guides="1" tooltips="1" connect="1" arrows="1" fold="1" page="1" pageScale="1" pageWidth="850" pageHeight="1100" math="0" shadow="0">
            <root>
                <mxCell id="0"/>
                <mxCell id="1" parent="0"/>
                <mxCell id="29" value="" style="rounded=0;whiteSpace=wrap;html=1;" parent="1" vertex="1">
                    <mxGeometry x="1110" y="110" width="550" height="570" as="geometry"/>
                </mxCell>
                <mxCell id="2" value="Input" style="text;html=1;align=center;verticalAlign=middle;resizable=0;points=[];autosize=1;strokeColor=none;fillColor=none;" parent="1" vertex="1">
                    <mxGeometry x="130" y="110" width="40" height="20" as="geometry"/>
                </mxCell>
                <mxCell id="3" value="Step 1" style="text;html=1;align=center;verticalAlign=middle;resizable=0;points=[];autosize=1;strokeColor=none;fillColor=none;" parent="1" vertex="1">
                    <mxGeometry x="115" y="1210" width="50" height="20" as="geometry"/>
                </mxCell>
                <mxCell id="4" value="Output" style="text;html=1;align=center;verticalAlign=middle;resizable=0;points=[];autosize=1;strokeColor=none;fillColor=none;" parent="1" vertex="1">
                    <mxGeometry x="100" y="1460" width="50" height="20" as="geometry"/>
                </mxCell>
                <mxCell id="5" value="Room" style="swimlane;fontStyle=1;align=center;verticalAlign=middle;childLayout=stackLayout;horizontal=1;startSize=29;horizontalStack=0;resizeParent=1;resizeParentMax=0;resizeLast=0;collapsible=0;marginBottom=0;html=1;" parent="1" vertex="1">
                    <mxGeometry x="240" y="80" width="170" height="204" as="geometry"/>
                </mxCell>
                <mxCell id="6" value="&amp;lt;&amp;lt;stereotype1&amp;gt;&amp;gt;" style="text;html=1;strokeColor=none;fillColor=none;align=center;verticalAlign=middle;spacingLeft=4;spacingRight=4;overflow=hidden;rotatable=0;points=[[0,0.5],[1,0.5]];portConstraint=eastwest;" parent="5" vertex="1">
                    <mxGeometry y="29" width="170" height="25" as="geometry"/>
                </mxCell>
                <mxCell id="7" value="id" style="text;html=1;strokeColor=none;fillColor=none;align=left;verticalAlign=middle;spacingLeft=4;spacingRight=4;overflow=hidden;rotatable=0;points=[[0,0.5],[1,0.5]];portConstraint=eastwest;" parent="5" vertex="1">
                    <mxGeometry y="54" width="170" height="25" as="geometry"/>
                </mxCell>
                <mxCell id="217" value="department" style="text;html=1;strokeColor=none;fillColor=none;align=left;verticalAlign=middle;spacingLeft=4;spacingRight=4;overflow=hidden;rotatable=0;points=[[0,0.5],[1,0.5]];portConstraint=eastwest;" parent="5" vertex="1">
                    <mxGeometry y="79" width="170" height="25" as="geometry"/>
                </mxCell>
                <mxCell id="247" value="dailyTime: List&amp;lt;DailyTimetable&amp;gt;" style="text;html=1;strokeColor=none;fillColor=none;align=left;verticalAlign=middle;spacingLeft=4;spacingRight=4;overflow=hidden;rotatable=0;points=[[0,0.5],[1,0.5]];portConstraint=eastwest;" parent="5" vertex="1">
                    <mxGeometry y="104" width="170" height="25" as="geometry"/>
                </mxCell>
                <mxCell id="234" value="capacity" style="text;html=1;strokeColor=none;fillColor=none;align=left;verticalAlign=middle;spacingLeft=4;spacingRight=4;overflow=hidden;rotatable=0;points=[[0,0.5],[1,0.5]];portConstraint=eastwest;" parent="5" vertex="1">
                    <mxGeometry y="129" width="170" height="25" as="geometry"/>
                </mxCell>
                <mxCell id="235" value="classType (lý thuyết / lab)" style="text;html=1;strokeColor=none;fillColor=none;align=left;verticalAlign=middle;spacingLeft=4;spacingRight=4;overflow=hidden;rotatable=0;points=[[0,0.5],[1,0.5]];portConstraint=eastwest;" parent="5" vertex="1">
                    <mxGeometry y="154" width="170" height="25" as="geometry"/>
                </mxCell>
                <mxCell id="231" value="coordinate (cơ sở, tòa, tầng)" style="text;html=1;strokeColor=none;fillColor=none;align=left;verticalAlign=middle;spacingLeft=4;spacingRight=4;overflow=hidden;rotatable=0;points=[[0,0.5],[1,0.5]];portConstraint=eastwest;" parent="5" vertex="1">
                    <mxGeometry y="179" width="170" height="25" as="geometry"/>
                </mxCell>
                <mxCell id="8" value="Instructor" style="swimlane;fontStyle=1;align=center;verticalAlign=middle;childLayout=stackLayout;horizontal=1;startSize=29;horizontalStack=0;resizeParent=1;resizeParentMax=0;resizeLast=0;collapsible=0;marginBottom=0;html=1;" parent="1" vertex="1">
                    <mxGeometry x="430" y="284" width="140" height="129" as="geometry"/>
                </mxCell>
                <mxCell id="9" value="&amp;lt;&amp;lt;stereotype1&amp;gt;&amp;gt;" style="text;html=1;strokeColor=none;fillColor=none;align=center;verticalAlign=middle;spacingLeft=4;spacingRight=4;overflow=hidden;rotatable=0;points=[[0,0.5],[1,0.5]];portConstraint=eastwest;" parent="8" vertex="1">
                    <mxGeometry y="29" width="140" height="25" as="geometry"/>
                </mxCell>
                <mxCell id="10" value="tkb" style="text;html=1;strokeColor=none;fillColor=none;align=left;verticalAlign=middle;spacingLeft=4;spacingRight=4;overflow=hidden;rotatable=0;points=[[0,0.5],[1,0.5]];portConstraint=eastwest;" parent="8" vertex="1">
                    <mxGeometry y="54" width="140" height="25" as="geometry"/>
                </mxCell>
                <mxCell id="218" value="department" style="text;html=1;strokeColor=none;fillColor=none;align=left;verticalAlign=middle;spacingLeft=4;spacingRight=4;overflow=hidden;rotatable=0;points=[[0,0.5],[1,0.5]];portConstraint=eastwest;" parent="8" vertex="1">
                    <mxGeometry y="79" width="140" height="25" as="geometry"/>
                </mxCell>
                <mxCell id="250" value="List&amp;lt;DailyTimetable&amp;gt;" style="text;html=1;strokeColor=none;fillColor=none;align=left;verticalAlign=middle;spacingLeft=4;spacingRight=4;overflow=hidden;rotatable=0;points=[[0,0.5],[1,0.5]];portConstraint=eastwest;" parent="8" vertex="1">
                    <mxGeometry y="104" width="140" height="25" as="geometry"/>
                </mxCell>
                <mxCell id="20" value="Student" style="swimlane;fontStyle=1;align=center;verticalAlign=middle;childLayout=stackLayout;horizontal=1;startSize=29;horizontalStack=0;resizeParent=1;resizeParentMax=0;resizeLast=0;collapsible=0;marginBottom=0;html=1;" parent="1" vertex="1">
                    <mxGeometry x="1140" y="120" width="140" height="79" as="geometry"/>
                </mxCell>
                <mxCell id="21" value="&amp;lt;&amp;lt;stereotype1&amp;gt;&amp;gt;" style="text;html=1;strokeColor=none;fillColor=none;align=center;verticalAlign=middle;spacingLeft=4;spacingRight=4;overflow=hidden;rotatable=0;points=[[0,0.5],[1,0.5]];portConstraint=eastwest;" parent="20" vertex="1">
                    <mxGeometry y="29" width="140" height="25" as="geometry"/>
                </mxCell>
                <mxCell id="22" value="tkb" style="text;html=1;strokeColor=none;fillColor=none;align=left;verticalAlign=middle;spacingLeft=4;spacingRight=4;overflow=hidden;rotatable=0;points=[[0,0.5],[1,0.5]];portConstraint=eastwest;" parent="20" vertex="1">
                    <mxGeometry y="54" width="140" height="25" as="geometry"/>
                </mxCell>
                <mxCell id="25" value="Requirements" style="text;html=1;align=center;verticalAlign=middle;resizable=0;points=[];autosize=1;strokeColor=none;fillColor=none;" parent="1" vertex="1">
                    <mxGeometry x="85" y="40" width="90" height="20" as="geometry"/>
                </mxCell>
                <mxCell id="27" value="&lt;meta charset=&quot;utf-8&quot;&gt;&lt;div&gt;Là Mở mh mới hoàn toàn và xếp thêm. Thì mình sẽ thêm mới hàngloạt (vd qua file excel)&#10;&lt;/div&gt;&lt;div&gt;&lt;/div&gt;&lt;div&gt;Sau đó thử chức năng xếp thêm vào mà ko đổi kết quả cũ.&#10;&lt;/div&gt;" style="text;whiteSpace=wrap;html=1;" parent="1" vertex="1">
                    <mxGeometry x="200" y="30" width="500" height="40" as="geometry"/>
                </mxCell>
                <mxCell id="31" value="Timetable" style="swimlane;fontStyle=1;align=center;verticalAlign=middle;childLayout=stackLayout;horizontal=1;startSize=29;horizontalStack=0;resizeParent=1;resizeParentMax=0;resizeLast=0;collapsible=0;marginBottom=0;html=1;" parent="1" vertex="1">
                    <mxGeometry x="150" y="1560" width="140" height="79" as="geometry"/>
                </mxCell>
                <mxCell id="32" value="&amp;lt;&amp;lt;stereotype1&amp;gt;&amp;gt;" style="text;html=1;strokeColor=none;fillColor=none;align=center;verticalAlign=middle;spacingLeft=4;spacingRight=4;overflow=hidden;rotatable=0;points=[[0,0.5],[1,0.5]];portConstraint=eastwest;" parent="31" vertex="1">
                    <mxGeometry y="29" width="140" height="25" as="geometry"/>
                </mxCell>
                <mxCell id="33" value="List of period" style="text;html=1;strokeColor=none;fillColor=none;align=left;verticalAlign=middle;spacingLeft=4;spacingRight=4;overflow=hidden;rotatable=0;points=[[0,0.5],[1,0.5]];portConstraint=eastwest;" parent="31" vertex="1">
                    <mxGeometry y="54" width="140" height="25" as="geometry"/>
                </mxCell>
                <mxCell id="35" value="Student2" style="swimlane;fontStyle=1;align=center;verticalAlign=middle;childLayout=stackLayout;horizontal=1;startSize=29;horizontalStack=0;resizeParent=1;resizeParentMax=0;resizeLast=0;collapsible=0;marginBottom=0;html=1;" parent="1" vertex="1">
                    <mxGeometry x="1310" y="120" width="140" height="79" as="geometry"/>
                </mxCell>
                <mxCell id="36" value="&amp;lt;&amp;lt;stereotype1&amp;gt;&amp;gt;" style="text;html=1;strokeColor=none;fillColor=none;align=center;verticalAlign=middle;spacingLeft=4;spacingRight=4;overflow=hidden;rotatable=0;points=[[0,0.5],[1,0.5]];portConstraint=eastwest;" parent="35" vertex="1">
                    <mxGeometry y="29" width="140" height="25" as="geometry"/>
                </mxCell>
                <mxCell id="37" value="tkb" style="text;html=1;strokeColor=none;fillColor=none;align=left;verticalAlign=middle;spacingLeft=4;spacingRight=4;overflow=hidden;rotatable=0;points=[[0,0.5],[1,0.5]];portConstraint=eastwest;" parent="35" vertex="1">
                    <mxGeometry y="54" width="140" height="25" as="geometry"/>
                </mxCell>
                <mxCell id="38" value="TimetableDensity" style="swimlane;fontStyle=1;align=center;verticalAlign=middle;childLayout=stackLayout;horizontal=1;startSize=29;horizontalStack=0;resizeParent=1;resizeParentMax=0;resizeLast=0;collapsible=0;marginBottom=0;html=1;" parent="1" vertex="1">
                    <mxGeometry x="1320" y="560" width="140" height="79" as="geometry"/>
                </mxCell>
                <mxCell id="39" value="&amp;lt;&amp;lt;stereotype1&amp;gt;&amp;gt;" style="text;html=1;strokeColor=none;fillColor=none;align=center;verticalAlign=middle;spacingLeft=4;spacingRight=4;overflow=hidden;rotatable=0;points=[[0,0.5],[1,0.5]];portConstraint=eastwest;" parent="38" vertex="1">
                    <mxGeometry y="29" width="140" height="25" as="geometry"/>
                </mxCell>
                <mxCell id="40" value="tkb" style="text;html=1;strokeColor=none;fillColor=none;align=left;verticalAlign=middle;spacingLeft=4;spacingRight=4;overflow=hidden;rotatable=0;points=[[0,0.5],[1,0.5]];portConstraint=eastwest;" parent="38" vertex="1">
                    <mxGeometry y="54" width="140" height="25" as="geometry"/>
                </mxCell>
                <mxCell id="41" value="Studentn" style="swimlane;fontStyle=1;align=center;verticalAlign=middle;childLayout=stackLayout;horizontal=1;startSize=29;horizontalStack=0;resizeParent=1;resizeParentMax=0;resizeLast=0;collapsible=0;marginBottom=0;html=1;" parent="1" vertex="1">
                    <mxGeometry x="1480" y="120" width="140" height="79" as="geometry"/>
                </mxCell>
                <mxCell id="42" value="&amp;lt;&amp;lt;stereotype1&amp;gt;&amp;gt;" style="text;html=1;strokeColor=none;fillColor=none;align=center;verticalAlign=middle;spacingLeft=4;spacingRight=4;overflow=hidden;rotatable=0;points=[[0,0.5],[1,0.5]];portConstraint=eastwest;" parent="41" vertex="1">
                    <mxGeometry y="29" width="140" height="25" as="geometry"/>
                </mxCell>
                <mxCell id="43" value="tkb" style="text;html=1;strokeColor=none;fillColor=none;align=left;verticalAlign=middle;spacingLeft=4;spacingRight=4;overflow=hidden;rotatable=0;points=[[0,0.5],[1,0.5]];portConstraint=eastwest;" parent="41" vertex="1">
                    <mxGeometry y="54" width="140" height="25" as="geometry"/>
                </mxCell>
                <mxCell id="44" value="" style="shape=table;html=1;whiteSpace=wrap;startSize=0;container=1;collapsible=0;childLayout=tableLayout;" parent="1" vertex="1">
                    <mxGeometry x="1150" y="220" width="130" height="80" as="geometry"/>
                </mxCell>
                <mxCell id="45" value="" style="shape=partialRectangle;html=1;whiteSpace=wrap;collapsible=0;dropTarget=0;pointerEvents=0;fillColor=none;top=0;left=0;bottom=0;right=0;points=[[0,0.5],[1,0.5]];portConstraint=eastwest;" parent="44" vertex="1">
                    <mxGeometry width="130" height="27" as="geometry"/>
                </mxCell>
                <mxCell id="46" value="x" style="shape=partialRectangle;html=1;whiteSpace=wrap;connectable=0;fillColor=none;top=0;left=0;bottom=0;right=0;overflow=hidden;pointerEvents=1;" parent="45" vertex="1">
                    <mxGeometry width="43" height="27" as="geometry">
                        <mxRectangle width="43" height="27" as="alternateBounds"/>
                    </mxGeometry>
                </mxCell>
                <mxCell id="47" value="" style="shape=partialRectangle;html=1;whiteSpace=wrap;connectable=0;fillColor=none;top=0;left=0;bottom=0;right=0;overflow=hidden;pointerEvents=1;" parent="45" vertex="1">
                    <mxGeometry x="43" width="44" height="27" as="geometry">
                        <mxRectangle width="44" height="27" as="alternateBounds"/>
                    </mxGeometry>
                </mxCell>
                <mxCell id="48" value="x" style="shape=partialRectangle;html=1;whiteSpace=wrap;connectable=0;fillColor=none;top=0;left=0;bottom=0;right=0;overflow=hidden;pointerEvents=1;" parent="45" vertex="1">
                    <mxGeometry x="87" width="43" height="27" as="geometry">
                        <mxRectangle width="43" height="27" as="alternateBounds"/>
                    </mxGeometry>
                </mxCell>
                <mxCell id="49" value="" style="shape=partialRectangle;html=1;whiteSpace=wrap;collapsible=0;dropTarget=0;pointerEvents=0;fillColor=none;top=0;left=0;bottom=0;right=0;points=[[0,0.5],[1,0.5]];portConstraint=eastwest;" parent="44" vertex="1">
                    <mxGeometry y="27" width="130" height="26" as="geometry"/>
                </mxCell>
                <mxCell id="50" value="x" style="shape=partialRectangle;html=1;whiteSpace=wrap;connectable=0;fillColor=none;top=0;left=0;bottom=0;right=0;overflow=hidden;pointerEvents=1;" parent="49" vertex="1">
                    <mxGeometry width="43" height="26" as="geometry">
                        <mxRectangle width="43" height="26" as="alternateBounds"/>
                    </mxGeometry>
                </mxCell>
                <mxCell id="51" value="x" style="shape=partialRectangle;html=1;whiteSpace=wrap;connectable=0;fillColor=none;top=0;left=0;bottom=0;right=0;overflow=hidden;pointerEvents=1;" parent="49" vertex="1">
                    <mxGeometry x="43" width="44" height="26" as="geometry">
                        <mxRectangle width="44" height="26" as="alternateBounds"/>
                    </mxGeometry>
                </mxCell>
                <mxCell id="52" value="" style="shape=partialRectangle;html=1;whiteSpace=wrap;connectable=0;fillColor=none;top=0;left=0;bottom=0;right=0;overflow=hidden;pointerEvents=1;" parent="49" vertex="1">
                    <mxGeometry x="87" width="43" height="26" as="geometry">
                        <mxRectangle width="43" height="26" as="alternateBounds"/>
                    </mxGeometry>
                </mxCell>
                <mxCell id="53" value="" style="shape=partialRectangle;html=1;whiteSpace=wrap;collapsible=0;dropTarget=0;pointerEvents=0;fillColor=none;top=0;left=0;bottom=0;right=0;points=[[0,0.5],[1,0.5]];portConstraint=eastwest;" parent="44" vertex="1">
                    <mxGeometry y="53" width="130" height="27" as="geometry"/>
                </mxCell>
                <mxCell id="54" value="" style="shape=partialRectangle;html=1;whiteSpace=wrap;connectable=0;fillColor=none;top=0;left=0;bottom=0;right=0;overflow=hidden;pointerEvents=1;" parent="53" vertex="1">
                    <mxGeometry width="43" height="27" as="geometry">
                        <mxRectangle width="43" height="27" as="alternateBounds"/>
                    </mxGeometry>
                </mxCell>
                <mxCell id="55" value="" style="shape=partialRectangle;html=1;whiteSpace=wrap;connectable=0;fillColor=none;top=0;left=0;bottom=0;right=0;overflow=hidden;pointerEvents=1;" parent="53" vertex="1">
                    <mxGeometry x="43" width="44" height="27" as="geometry">
                        <mxRectangle width="44" height="27" as="alternateBounds"/>
                    </mxGeometry>
                </mxCell>
                <mxCell id="56" value="x" style="shape=partialRectangle;html=1;whiteSpace=wrap;connectable=0;fillColor=none;top=0;left=0;bottom=0;right=0;overflow=hidden;pointerEvents=1;" parent="53" vertex="1">
                    <mxGeometry x="87" width="43" height="27" as="geometry">
                        <mxRectangle width="43" height="27" as="alternateBounds"/>
                    </mxGeometry>
                </mxCell>
                <mxCell id="57" value="" style="shape=table;html=1;whiteSpace=wrap;startSize=0;container=1;collapsible=0;childLayout=tableLayout;" parent="1" vertex="1">
                    <mxGeometry x="1320" y="220" width="130" height="80" as="geometry"/>
                </mxCell>
                <mxCell id="58" value="" style="shape=partialRectangle;html=1;whiteSpace=wrap;collapsible=0;dropTarget=0;pointerEvents=0;fillColor=none;top=0;left=0;bottom=0;right=0;points=[[0,0.5],[1,0.5]];portConstraint=eastwest;" parent="57" vertex="1">
                    <mxGeometry width="130" height="27" as="geometry"/>
                </mxCell>
                <mxCell id="59" value="x" style="shape=partialRectangle;html=1;whiteSpace=wrap;connectable=0;fillColor=none;top=0;left=0;bottom=0;right=0;overflow=hidden;pointerEvents=1;" parent="58" vertex="1">
                    <mxGeometry width="43" height="27" as="geometry">
                        <mxRectangle width="43" height="27" as="alternateBounds"/>
                    </mxGeometry>
                </mxCell>
                <mxCell id="60" value="" style="shape=partialRectangle;html=1;whiteSpace=wrap;connectable=0;fillColor=none;top=0;left=0;bottom=0;right=0;overflow=hidden;pointerEvents=1;" parent="58" vertex="1">
                    <mxGeometry x="43" width="44" height="27" as="geometry">
                        <mxRectangle width="44" height="27" as="alternateBounds"/>
                    </mxGeometry>
                </mxCell>
                <mxCell id="61" value="x" style="shape=partialRectangle;html=1;whiteSpace=wrap;connectable=0;fillColor=none;top=0;left=0;bottom=0;right=0;overflow=hidden;pointerEvents=1;" parent="58" vertex="1">
                    <mxGeometry x="87" width="43" height="27" as="geometry">
                        <mxRectangle width="43" height="27" as="alternateBounds"/>
                    </mxGeometry>
                </mxCell>
                <mxCell id="62" value="" style="shape=partialRectangle;html=1;whiteSpace=wrap;collapsible=0;dropTarget=0;pointerEvents=0;fillColor=none;top=0;left=0;bottom=0;right=0;points=[[0,0.5],[1,0.5]];portConstraint=eastwest;" parent="57" vertex="1">
                    <mxGeometry y="27" width="130" height="26" as="geometry"/>
                </mxCell>
                <mxCell id="63" value="x" style="shape=partialRectangle;html=1;whiteSpace=wrap;connectable=0;fillColor=none;top=0;left=0;bottom=0;right=0;overflow=hidden;pointerEvents=1;" parent="62" vertex="1">
                    <mxGeometry width="43" height="26" as="geometry">
                        <mxRectangle width="43" height="26" as="alternateBounds"/>
                    </mxGeometry>
                </mxCell>
                <mxCell id="64" value="" style="shape=partialRectangle;html=1;whiteSpace=wrap;connectable=0;fillColor=none;top=0;left=0;bottom=0;right=0;overflow=hidden;pointerEvents=1;" parent="62" vertex="1">
                    <mxGeometry x="43" width="44" height="26" as="geometry">
                        <mxRectangle width="44" height="26" as="alternateBounds"/>
                    </mxGeometry>
                </mxCell>
                <mxCell id="65" value="" style="shape=partialRectangle;html=1;whiteSpace=wrap;connectable=0;fillColor=none;top=0;left=0;bottom=0;right=0;overflow=hidden;pointerEvents=1;" parent="62" vertex="1">
                    <mxGeometry x="87" width="43" height="26" as="geometry">
                        <mxRectangle width="43" height="26" as="alternateBounds"/>
                    </mxGeometry>
                </mxCell>
                <mxCell id="66" value="" style="shape=partialRectangle;html=1;whiteSpace=wrap;collapsible=0;dropTarget=0;pointerEvents=0;fillColor=none;top=0;left=0;bottom=0;right=0;points=[[0,0.5],[1,0.5]];portConstraint=eastwest;" parent="57" vertex="1">
                    <mxGeometry y="53" width="130" height="27" as="geometry"/>
                </mxCell>
                <mxCell id="67" value="" style="shape=partialRectangle;html=1;whiteSpace=wrap;connectable=0;fillColor=none;top=0;left=0;bottom=0;right=0;overflow=hidden;pointerEvents=1;" parent="66" vertex="1">
                    <mxGeometry width="43" height="27" as="geometry">
                        <mxRectangle width="43" height="27" as="alternateBounds"/>
                    </mxGeometry>
                </mxCell>
                <mxCell id="68" value="x" style="shape=partialRectangle;html=1;whiteSpace=wrap;connectable=0;fillColor=none;top=0;left=0;bottom=0;right=0;overflow=hidden;pointerEvents=1;" parent="66" vertex="1">
                    <mxGeometry x="43" width="44" height="27" as="geometry">
                        <mxRectangle width="44" height="27" as="alternateBounds"/>
                    </mxGeometry>
                </mxCell>
                <mxCell id="69" value="" style="shape=partialRectangle;html=1;whiteSpace=wrap;connectable=0;fillColor=none;top=0;left=0;bottom=0;right=0;overflow=hidden;pointerEvents=1;" parent="66" vertex="1">
                    <mxGeometry x="87" width="43" height="27" as="geometry">
                        <mxRectangle width="43" height="27" as="alternateBounds"/>
                    </mxGeometry>
                </mxCell>
                <mxCell id="70" value="" style="shape=table;html=1;whiteSpace=wrap;startSize=0;container=1;collapsible=0;childLayout=tableLayout;" parent="1" vertex="1">
                    <mxGeometry x="1480" y="220" width="130" height="80" as="geometry"/>
                </mxCell>
                <mxCell id="71" value="" style="shape=partialRectangle;html=1;whiteSpace=wrap;collapsible=0;dropTarget=0;pointerEvents=0;fillColor=none;top=0;left=0;bottom=0;right=0;points=[[0,0.5],[1,0.5]];portConstraint=eastwest;" parent="70" vertex="1">
                    <mxGeometry width="130" height="27" as="geometry"/>
                </mxCell>
                <mxCell id="72" value="" style="shape=partialRectangle;html=1;whiteSpace=wrap;connectable=0;fillColor=none;top=0;left=0;bottom=0;right=0;overflow=hidden;pointerEvents=1;" parent="71" vertex="1">
                    <mxGeometry width="43" height="27" as="geometry">
                        <mxRectangle width="43" height="27" as="alternateBounds"/>
                    </mxGeometry>
                </mxCell>
                <mxCell id="73" value="" style="shape=partialRectangle;html=1;whiteSpace=wrap;connectable=0;fillColor=none;top=0;left=0;bottom=0;right=0;overflow=hidden;pointerEvents=1;" parent="71" vertex="1">
                    <mxGeometry x="43" width="44" height="27" as="geometry">
                        <mxRectangle width="44" height="27" as="alternateBounds"/>
                    </mxGeometry>
                </mxCell>
                <mxCell id="74" value="x" style="shape=partialRectangle;html=1;whiteSpace=wrap;connectable=0;fillColor=none;top=0;left=0;bottom=0;right=0;overflow=hidden;pointerEvents=1;" parent="71" vertex="1">
                    <mxGeometry x="87" width="43" height="27" as="geometry">
                        <mxRectangle width="43" height="27" as="alternateBounds"/>
                    </mxGeometry>
                </mxCell>
                <mxCell id="75" value="" style="shape=partialRectangle;html=1;whiteSpace=wrap;collapsible=0;dropTarget=0;pointerEvents=0;fillColor=none;top=0;left=0;bottom=0;right=0;points=[[0,0.5],[1,0.5]];portConstraint=eastwest;" parent="70" vertex="1">
                    <mxGeometry y="27" width="130" height="26" as="geometry"/>
                </mxCell>
                <mxCell id="76" value="" style="shape=partialRectangle;html=1;whiteSpace=wrap;connectable=0;fillColor=none;top=0;left=0;bottom=0;right=0;overflow=hidden;pointerEvents=1;" parent="75" vertex="1">
                    <mxGeometry width="43" height="26" as="geometry">
                        <mxRectangle width="43" height="26" as="alternateBounds"/>
                    </mxGeometry>
                </mxCell>
                <mxCell id="77" value="x" style="shape=partialRectangle;html=1;whiteSpace=wrap;connectable=0;fillColor=none;top=0;left=0;bottom=0;right=0;overflow=hidden;pointerEvents=1;" parent="75" vertex="1">
                    <mxGeometry x="43" width="44" height="26" as="geometry">
                        <mxRectangle width="44" height="26" as="alternateBounds"/>
                    </mxGeometry>
                </mxCell>
                <mxCell id="78" value="" style="shape=partialRectangle;html=1;whiteSpace=wrap;connectable=0;fillColor=none;top=0;left=0;bottom=0;right=0;overflow=hidden;pointerEvents=1;" parent="75" vertex="1">
                    <mxGeometry x="87" width="43" height="26" as="geometry">
                        <mxRectangle width="43" height="26" as="alternateBounds"/>
                    </mxGeometry>
                </mxCell>
                <mxCell id="79" value="" style="shape=partialRectangle;html=1;whiteSpace=wrap;collapsible=0;dropTarget=0;pointerEvents=0;fillColor=none;top=0;left=0;bottom=0;right=0;points=[[0,0.5],[1,0.5]];portConstraint=eastwest;" parent="70" vertex="1">
                    <mxGeometry y="53" width="130" height="27" as="geometry"/>
                </mxCell>
                <mxCell id="80" value="x" style="shape=partialRectangle;html=1;whiteSpace=wrap;connectable=0;fillColor=none;top=0;left=0;bottom=0;right=0;overflow=hidden;pointerEvents=1;" parent="79" vertex="1">
                    <mxGeometry width="43" height="27" as="geometry">
                        <mxRectangle width="43" height="27" as="alternateBounds"/>
                    </mxGeometry>
                </mxCell>
                <mxCell id="81" value="" style="shape=partialRectangle;html=1;whiteSpace=wrap;connectable=0;fillColor=none;top=0;left=0;bottom=0;right=0;overflow=hidden;pointerEvents=1;" parent="79" vertex="1">
                    <mxGeometry x="43" width="44" height="27" as="geometry">
                        <mxRectangle width="44" height="27" as="alternateBounds"/>
                    </mxGeometry>
                </mxCell>
                <mxCell id="82" value="x" style="shape=partialRectangle;html=1;whiteSpace=wrap;connectable=0;fillColor=none;top=0;left=0;bottom=0;right=0;overflow=hidden;pointerEvents=1;" parent="79" vertex="1">
                    <mxGeometry x="87" width="43" height="27" as="geometry">
                        <mxRectangle width="43" height="27" as="alternateBounds"/>
                    </mxGeometry>
                </mxCell>
                <mxCell id="83" value="" style="shape=table;html=1;whiteSpace=wrap;startSize=0;container=1;collapsible=0;childLayout=tableLayout;" parent="1" vertex="1">
                    <mxGeometry x="235" y="1260" width="130" height="80" as="geometry"/>
                </mxCell>
                <mxCell id="84" value="" style="shape=partialRectangle;html=1;whiteSpace=wrap;collapsible=0;dropTarget=0;pointerEvents=0;fillColor=none;top=0;left=0;bottom=0;right=0;points=[[0,0.5],[1,0.5]];portConstraint=eastwest;" parent="83" vertex="1">
                    <mxGeometry width="130" height="27" as="geometry"/>
                </mxCell>
                <mxCell id="85" value="x" style="shape=partialRectangle;html=1;whiteSpace=wrap;connectable=0;fillColor=none;top=0;left=0;bottom=0;right=0;overflow=hidden;pointerEvents=1;" parent="84" vertex="1">
                    <mxGeometry width="43" height="27" as="geometry">
                        <mxRectangle width="43" height="27" as="alternateBounds"/>
                    </mxGeometry>
                </mxCell>
                <mxCell id="86" value="" style="shape=partialRectangle;html=1;whiteSpace=wrap;connectable=0;fillColor=none;top=0;left=0;bottom=0;right=0;overflow=hidden;pointerEvents=1;" parent="84" vertex="1">
                    <mxGeometry x="43" width="44" height="27" as="geometry">
                        <mxRectangle width="44" height="27" as="alternateBounds"/>
                    </mxGeometry>
                </mxCell>
                <mxCell id="87" value="x" style="shape=partialRectangle;html=1;whiteSpace=wrap;connectable=0;fillColor=none;top=0;left=0;bottom=0;right=0;overflow=hidden;pointerEvents=1;" parent="84" vertex="1">
                    <mxGeometry x="87" width="43" height="27" as="geometry">
                        <mxRectangle width="43" height="27" as="alternateBounds"/>
                    </mxGeometry>
                </mxCell>
                <mxCell id="88" value="" style="shape=partialRectangle;html=1;whiteSpace=wrap;collapsible=0;dropTarget=0;pointerEvents=0;fillColor=none;top=0;left=0;bottom=0;right=0;points=[[0,0.5],[1,0.5]];portConstraint=eastwest;" parent="83" vertex="1">
                    <mxGeometry y="27" width="130" height="26" as="geometry"/>
                </mxCell>
                <mxCell id="89" value="" style="shape=partialRectangle;html=1;whiteSpace=wrap;connectable=0;fillColor=none;top=0;left=0;bottom=0;right=0;overflow=hidden;pointerEvents=1;" parent="88" vertex="1">
                    <mxGeometry width="43" height="26" as="geometry">
                        <mxRectangle width="43" height="26" as="alternateBounds"/>
                    </mxGeometry>
                </mxCell>
                <mxCell id="90" value="x" style="shape=partialRectangle;html=1;whiteSpace=wrap;connectable=0;fillColor=none;top=0;left=0;bottom=0;right=0;overflow=hidden;pointerEvents=1;" parent="88" vertex="1">
                    <mxGeometry x="43" width="44" height="26" as="geometry">
                        <mxRectangle width="44" height="26" as="alternateBounds"/>
                    </mxGeometry>
                </mxCell>
                <mxCell id="91" value="" style="shape=partialRectangle;html=1;whiteSpace=wrap;connectable=0;fillColor=none;top=0;left=0;bottom=0;right=0;overflow=hidden;pointerEvents=1;" parent="88" vertex="1">
                    <mxGeometry x="87" width="43" height="26" as="geometry">
                        <mxRectangle width="43" height="26" as="alternateBounds"/>
                    </mxGeometry>
                </mxCell>
                <mxCell id="92" value="" style="shape=partialRectangle;html=1;whiteSpace=wrap;collapsible=0;dropTarget=0;pointerEvents=0;fillColor=none;top=0;left=0;bottom=0;right=0;points=[[0,0.5],[1,0.5]];portConstraint=eastwest;" parent="83" vertex="1">
                    <mxGeometry y="53" width="130" height="27" as="geometry"/>
                </mxCell>
                <mxCell id="93" value="" style="shape=partialRectangle;html=1;whiteSpace=wrap;connectable=0;fillColor=none;top=0;left=0;bottom=0;right=0;overflow=hidden;pointerEvents=1;" parent="92" vertex="1">
                    <mxGeometry width="43" height="27" as="geometry">
                        <mxRectangle width="43" height="27" as="alternateBounds"/>
                    </mxGeometry>
                </mxCell>
                <mxCell id="94" value="" style="shape=partialRectangle;html=1;whiteSpace=wrap;connectable=0;fillColor=none;top=0;left=0;bottom=0;right=0;overflow=hidden;pointerEvents=1;" parent="92" vertex="1">
                    <mxGeometry x="43" width="44" height="27" as="geometry">
                        <mxRectangle width="44" height="27" as="alternateBounds"/>
                    </mxGeometry>
                </mxCell>
                <mxCell id="95" value="" style="shape=partialRectangle;html=1;whiteSpace=wrap;connectable=0;fillColor=none;top=0;left=0;bottom=0;right=0;overflow=hidden;pointerEvents=1;" parent="92" vertex="1">
                    <mxGeometry x="87" width="43" height="27" as="geometry">
                        <mxRectangle width="43" height="27" as="alternateBounds"/>
                    </mxGeometry>
                </mxCell>
                <mxCell id="96" value="" style="shape=table;html=1;whiteSpace=wrap;startSize=0;container=1;collapsible=0;childLayout=tableLayout;" parent="1" vertex="1">
                    <mxGeometry x="235" y="1390" width="130" height="80" as="geometry"/>
                </mxCell>
                <mxCell id="97" value="" style="shape=partialRectangle;html=1;whiteSpace=wrap;collapsible=0;dropTarget=0;pointerEvents=0;fillColor=none;top=0;left=0;bottom=0;right=0;points=[[0,0.5],[1,0.5]];portConstraint=eastwest;" parent="96" vertex="1">
                    <mxGeometry width="130" height="27" as="geometry"/>
                </mxCell>
                <mxCell id="98" value="x" style="shape=partialRectangle;html=1;whiteSpace=wrap;connectable=0;fillColor=none;top=0;left=0;bottom=0;right=0;overflow=hidden;pointerEvents=1;" parent="97" vertex="1">
                    <mxGeometry width="43" height="27" as="geometry">
                        <mxRectangle width="43" height="27" as="alternateBounds"/>
                    </mxGeometry>
                </mxCell>
                <mxCell id="99" value="" style="shape=partialRectangle;html=1;whiteSpace=wrap;connectable=0;fillColor=none;top=0;left=0;bottom=0;right=0;overflow=hidden;pointerEvents=1;" parent="97" vertex="1">
                    <mxGeometry x="43" width="44" height="27" as="geometry">
                        <mxRectangle width="44" height="27" as="alternateBounds"/>
                    </mxGeometry>
                </mxCell>
                <mxCell id="100" value="" style="shape=partialRectangle;html=1;whiteSpace=wrap;connectable=0;fillColor=none;top=0;left=0;bottom=0;right=0;overflow=hidden;pointerEvents=1;" parent="97" vertex="1">
                    <mxGeometry x="87" width="43" height="27" as="geometry">
                        <mxRectangle width="43" height="27" as="alternateBounds"/>
                    </mxGeometry>
                </mxCell>
                <mxCell id="101" value="" style="shape=partialRectangle;html=1;whiteSpace=wrap;collapsible=0;dropTarget=0;pointerEvents=0;fillColor=none;top=0;left=0;bottom=0;right=0;points=[[0,0.5],[1,0.5]];portConstraint=eastwest;" parent="96" vertex="1">
                    <mxGeometry y="27" width="130" height="26" as="geometry"/>
                </mxCell>
                <mxCell id="102" value="" style="shape=partialRectangle;html=1;whiteSpace=wrap;connectable=0;fillColor=none;top=0;left=0;bottom=0;right=0;overflow=hidden;pointerEvents=1;" parent="101" vertex="1">
                    <mxGeometry width="43" height="26" as="geometry">
                        <mxRectangle width="43" height="26" as="alternateBounds"/>
                    </mxGeometry>
                </mxCell>
                <mxCell id="103" value="" style="shape=partialRectangle;html=1;whiteSpace=wrap;connectable=0;fillColor=none;top=0;left=0;bottom=0;right=0;overflow=hidden;pointerEvents=1;" parent="101" vertex="1">
                    <mxGeometry x="43" width="44" height="26" as="geometry">
                        <mxRectangle width="44" height="26" as="alternateBounds"/>
                    </mxGeometry>
                </mxCell>
                <mxCell id="104" value="x" style="shape=partialRectangle;html=1;whiteSpace=wrap;connectable=0;fillColor=none;top=0;left=0;bottom=0;right=0;overflow=hidden;pointerEvents=1;" parent="101" vertex="1">
                    <mxGeometry x="87" width="43" height="26" as="geometry">
                        <mxRectangle width="43" height="26" as="alternateBounds"/>
                    </mxGeometry>
                </mxCell>
                <mxCell id="105" value="" style="shape=partialRectangle;html=1;whiteSpace=wrap;collapsible=0;dropTarget=0;pointerEvents=0;fillColor=none;top=0;left=0;bottom=0;right=0;points=[[0,0.5],[1,0.5]];portConstraint=eastwest;" parent="96" vertex="1">
                    <mxGeometry y="53" width="130" height="27" as="geometry"/>
                </mxCell>
                <mxCell id="106" value="x" style="shape=partialRectangle;html=1;whiteSpace=wrap;connectable=0;fillColor=none;top=0;left=0;bottom=0;right=0;overflow=hidden;pointerEvents=1;" parent="105" vertex="1">
                    <mxGeometry width="43" height="27" as="geometry">
                        <mxRectangle width="43" height="27" as="alternateBounds"/>
                    </mxGeometry>
                </mxCell>
                <mxCell id="107" value="x" style="shape=partialRectangle;html=1;whiteSpace=wrap;connectable=0;fillColor=none;top=0;left=0;bottom=0;right=0;overflow=hidden;pointerEvents=1;" parent="105" vertex="1">
                    <mxGeometry x="43" width="44" height="27" as="geometry">
                        <mxRectangle width="44" height="27" as="alternateBounds"/>
                    </mxGeometry>
                </mxCell>
                <mxCell id="108" value="" style="shape=partialRectangle;html=1;whiteSpace=wrap;connectable=0;fillColor=none;top=0;left=0;bottom=0;right=0;overflow=hidden;pointerEvents=1;" parent="105" vertex="1">
                    <mxGeometry x="87" width="43" height="27" as="geometry">
                        <mxRectangle width="43" height="27" as="alternateBounds"/>
                    </mxGeometry>
                </mxCell>
                <mxCell id="109" value="and" style="text;html=1;align=center;verticalAlign=middle;resizable=0;points=[];autosize=1;strokeColor=none;fillColor=none;" parent="1" vertex="1">
                    <mxGeometry x="275" y="1350" width="40" height="20" as="geometry"/>
                </mxCell>
                <mxCell id="111" value="Room1" style="text;html=1;align=center;verticalAlign=middle;resizable=0;points=[];autosize=1;strokeColor=none;fillColor=none;" parent="1" vertex="1">
                    <mxGeometry x="270" y="1240" width="50" height="20" as="geometry"/>
                </mxCell>
                <mxCell id="125" value="Room2" style="text;html=1;align=center;verticalAlign=middle;resizable=0;points=[];autosize=1;strokeColor=none;fillColor=none;" parent="1" vertex="1">
                    <mxGeometry x="275" y="1370" width="50" height="20" as="geometry"/>
                </mxCell>
                <mxCell id="134" value="" style="shape=table;html=1;whiteSpace=wrap;startSize=0;container=1;collapsible=0;childLayout=tableLayout;" parent="1" vertex="1">
                    <mxGeometry x="410" y="1260" width="130" height="80" as="geometry"/>
                </mxCell>
                <mxCell id="135" value="" style="shape=partialRectangle;html=1;whiteSpace=wrap;collapsible=0;dropTarget=0;pointerEvents=0;fillColor=none;top=0;left=0;bottom=0;right=0;points=[[0,0.5],[1,0.5]];portConstraint=eastwest;" parent="134" vertex="1">
                    <mxGeometry width="130" height="27" as="geometry"/>
                </mxCell>
                <mxCell id="136" value="x" style="shape=partialRectangle;html=1;whiteSpace=wrap;connectable=0;fillColor=none;top=0;left=0;bottom=0;right=0;overflow=hidden;pointerEvents=1;" parent="135" vertex="1">
                    <mxGeometry width="43" height="27" as="geometry">
                        <mxRectangle width="43" height="27" as="alternateBounds"/>
                    </mxGeometry>
                </mxCell>
                <mxCell id="137" value="" style="shape=partialRectangle;html=1;whiteSpace=wrap;connectable=0;fillColor=none;top=0;left=0;bottom=0;right=0;overflow=hidden;pointerEvents=1;" parent="135" vertex="1">
                    <mxGeometry x="43" width="44" height="27" as="geometry">
                        <mxRectangle width="44" height="27" as="alternateBounds"/>
                    </mxGeometry>
                </mxCell>
                <mxCell id="138" value="" style="shape=partialRectangle;html=1;whiteSpace=wrap;connectable=0;fillColor=none;top=0;left=0;bottom=0;right=0;overflow=hidden;pointerEvents=1;" parent="135" vertex="1">
                    <mxGeometry x="87" width="43" height="27" as="geometry">
                        <mxRectangle width="43" height="27" as="alternateBounds"/>
                    </mxGeometry>
                </mxCell>
                <mxCell id="139" value="" style="shape=partialRectangle;html=1;whiteSpace=wrap;collapsible=0;dropTarget=0;pointerEvents=0;fillColor=none;top=0;left=0;bottom=0;right=0;points=[[0,0.5],[1,0.5]];portConstraint=eastwest;" parent="134" vertex="1">
                    <mxGeometry y="27" width="130" height="26" as="geometry"/>
                </mxCell>
                <mxCell id="140" value="x" style="shape=partialRectangle;html=1;whiteSpace=wrap;connectable=0;fillColor=none;top=0;left=0;bottom=0;right=0;overflow=hidden;pointerEvents=1;" parent="139" vertex="1">
                    <mxGeometry width="43" height="26" as="geometry">
                        <mxRectangle width="43" height="26" as="alternateBounds"/>
                    </mxGeometry>
                </mxCell>
                <mxCell id="141" value="x" style="shape=partialRectangle;html=1;whiteSpace=wrap;connectable=0;fillColor=none;top=0;left=0;bottom=0;right=0;overflow=hidden;pointerEvents=1;" parent="139" vertex="1">
                    <mxGeometry x="43" width="44" height="26" as="geometry">
                        <mxRectangle width="44" height="26" as="alternateBounds"/>
                    </mxGeometry>
                </mxCell>
                <mxCell id="142" value="x" style="shape=partialRectangle;html=1;whiteSpace=wrap;connectable=0;fillColor=none;top=0;left=0;bottom=0;right=0;overflow=hidden;pointerEvents=1;" parent="139" vertex="1">
                    <mxGeometry x="87" width="43" height="26" as="geometry">
                        <mxRectangle width="43" height="26" as="alternateBounds"/>
                    </mxGeometry>
                </mxCell>
                <mxCell id="143" value="" style="shape=partialRectangle;html=1;whiteSpace=wrap;collapsible=0;dropTarget=0;pointerEvents=0;fillColor=none;top=0;left=0;bottom=0;right=0;points=[[0,0.5],[1,0.5]];portConstraint=eastwest;" parent="134" vertex="1">
                    <mxGeometry y="53" width="130" height="27" as="geometry"/>
                </mxCell>
                <mxCell id="144" value="x" style="shape=partialRectangle;html=1;whiteSpace=wrap;connectable=0;fillColor=none;top=0;left=0;bottom=0;right=0;overflow=hidden;pointerEvents=1;" parent="143" vertex="1">
                    <mxGeometry width="43" height="27" as="geometry">
                        <mxRectangle width="43" height="27" as="alternateBounds"/>
                    </mxGeometry>
                </mxCell>
                <mxCell id="145" value="" style="shape=partialRectangle;html=1;whiteSpace=wrap;connectable=0;fillColor=none;top=0;left=0;bottom=0;right=0;overflow=hidden;pointerEvents=1;" parent="143" vertex="1">
                    <mxGeometry x="43" width="44" height="27" as="geometry">
                        <mxRectangle width="44" height="27" as="alternateBounds"/>
                    </mxGeometry>
                </mxCell>
                <mxCell id="146" value="x" style="shape=partialRectangle;html=1;whiteSpace=wrap;connectable=0;fillColor=none;top=0;left=0;bottom=0;right=0;overflow=hidden;pointerEvents=1;" parent="143" vertex="1">
                    <mxGeometry x="87" width="43" height="27" as="geometry">
                        <mxRectangle width="43" height="27" as="alternateBounds"/>
                    </mxGeometry>
                </mxCell>
                <mxCell id="147" value="Lec1" style="text;html=1;align=center;verticalAlign=middle;resizable=0;points=[];autosize=1;strokeColor=none;fillColor=none;" parent="1" vertex="1">
                    <mxGeometry x="460" y="1240" width="40" height="20" as="geometry"/>
                </mxCell>
                <mxCell id="148" value="" style="shape=table;html=1;whiteSpace=wrap;startSize=0;container=1;collapsible=0;childLayout=tableLayout;" parent="1" vertex="1">
                    <mxGeometry x="410" y="1390" width="130" height="80" as="geometry"/>
                </mxCell>
                <mxCell id="149" value="" style="shape=partialRectangle;html=1;whiteSpace=wrap;collapsible=0;dropTarget=0;pointerEvents=0;fillColor=none;top=0;left=0;bottom=0;right=0;points=[[0,0.5],[1,0.5]];portConstraint=eastwest;" parent="148" vertex="1">
                    <mxGeometry width="130" height="27" as="geometry"/>
                </mxCell>
                <mxCell id="150" value="x" style="shape=partialRectangle;html=1;whiteSpace=wrap;connectable=0;fillColor=none;top=0;left=0;bottom=0;right=0;overflow=hidden;pointerEvents=1;" parent="149" vertex="1">
                    <mxGeometry width="43" height="27" as="geometry">
                        <mxRectangle width="43" height="27" as="alternateBounds"/>
                    </mxGeometry>
                </mxCell>
                <mxCell id="151" value="" style="shape=partialRectangle;html=1;whiteSpace=wrap;connectable=0;fillColor=none;top=0;left=0;bottom=0;right=0;overflow=hidden;pointerEvents=1;" parent="149" vertex="1">
                    <mxGeometry x="43" width="44" height="27" as="geometry">
                        <mxRectangle width="44" height="27" as="alternateBounds"/>
                    </mxGeometry>
                </mxCell>
                <mxCell id="152" value="x" style="shape=partialRectangle;html=1;whiteSpace=wrap;connectable=0;fillColor=none;top=0;left=0;bottom=0;right=0;overflow=hidden;pointerEvents=1;" parent="149" vertex="1">
                    <mxGeometry x="87" width="43" height="27" as="geometry">
                        <mxRectangle width="43" height="27" as="alternateBounds"/>
                    </mxGeometry>
                </mxCell>
                <mxCell id="153" value="" style="shape=partialRectangle;html=1;whiteSpace=wrap;collapsible=0;dropTarget=0;pointerEvents=0;fillColor=none;top=0;left=0;bottom=0;right=0;points=[[0,0.5],[1,0.5]];portConstraint=eastwest;" parent="148" vertex="1">
                    <mxGeometry y="27" width="130" height="26" as="geometry"/>
                </mxCell>
                <mxCell id="154" value="" style="shape=partialRectangle;html=1;whiteSpace=wrap;connectable=0;fillColor=none;top=0;left=0;bottom=0;right=0;overflow=hidden;pointerEvents=1;" parent="153" vertex="1">
                    <mxGeometry width="43" height="26" as="geometry">
                        <mxRectangle width="43" height="26" as="alternateBounds"/>
                    </mxGeometry>
                </mxCell>
                <mxCell id="155" value="x" style="shape=partialRectangle;html=1;whiteSpace=wrap;connectable=0;fillColor=none;top=0;left=0;bottom=0;right=0;overflow=hidden;pointerEvents=1;" parent="153" vertex="1">
                    <mxGeometry x="43" width="44" height="26" as="geometry">
                        <mxRectangle width="44" height="26" as="alternateBounds"/>
                    </mxGeometry>
                </mxCell>
                <mxCell id="156" value="" style="shape=partialRectangle;html=1;whiteSpace=wrap;connectable=0;fillColor=none;top=0;left=0;bottom=0;right=0;overflow=hidden;pointerEvents=1;" parent="153" vertex="1">
                    <mxGeometry x="87" width="43" height="26" as="geometry">
                        <mxRectangle width="43" height="26" as="alternateBounds"/>
                    </mxGeometry>
                </mxCell>
                <mxCell id="157" value="" style="shape=partialRectangle;html=1;whiteSpace=wrap;collapsible=0;dropTarget=0;pointerEvents=0;fillColor=none;top=0;left=0;bottom=0;right=0;points=[[0,0.5],[1,0.5]];portConstraint=eastwest;" parent="148" vertex="1">
                    <mxGeometry y="53" width="130" height="27" as="geometry"/>
                </mxCell>
                <mxCell id="158" value="x" style="shape=partialRectangle;html=1;whiteSpace=wrap;connectable=0;fillColor=none;top=0;left=0;bottom=0;right=0;overflow=hidden;pointerEvents=1;" parent="157" vertex="1">
                    <mxGeometry width="43" height="27" as="geometry">
                        <mxRectangle width="43" height="27" as="alternateBounds"/>
                    </mxGeometry>
                </mxCell>
                <mxCell id="159" value="" style="shape=partialRectangle;html=1;whiteSpace=wrap;connectable=0;fillColor=none;top=0;left=0;bottom=0;right=0;overflow=hidden;pointerEvents=1;" parent="157" vertex="1">
                    <mxGeometry x="43" width="44" height="27" as="geometry">
                        <mxRectangle width="44" height="27" as="alternateBounds"/>
                    </mxGeometry>
                </mxCell>
                <mxCell id="160" value="" style="shape=partialRectangle;html=1;whiteSpace=wrap;connectable=0;fillColor=none;top=0;left=0;bottom=0;right=0;overflow=hidden;pointerEvents=1;" parent="157" vertex="1">
                    <mxGeometry x="87" width="43" height="27" as="geometry">
                        <mxRectangle width="43" height="27" as="alternateBounds"/>
                    </mxGeometry>
                </mxCell>
                <mxCell id="161" value="Lec2" style="text;html=1;align=center;verticalAlign=middle;resizable=0;points=[];autosize=1;strokeColor=none;fillColor=none;" parent="1" vertex="1">
                    <mxGeometry x="460" y="1370" width="40" height="20" as="geometry"/>
                </mxCell>
                <mxCell id="162" value="" style="shape=table;html=1;whiteSpace=wrap;startSize=0;container=1;collapsible=0;childLayout=tableLayout;" parent="1" vertex="1">
                    <mxGeometry x="615" y="1320" width="130" height="80" as="geometry"/>
                </mxCell>
                <mxCell id="163" value="" style="shape=partialRectangle;html=1;whiteSpace=wrap;collapsible=0;dropTarget=0;pointerEvents=0;fillColor=none;top=0;left=0;bottom=0;right=0;points=[[0,0.5],[1,0.5]];portConstraint=eastwest;" parent="162" vertex="1">
                    <mxGeometry width="130" height="27" as="geometry"/>
                </mxCell>
                <mxCell id="164" value="x" style="shape=partialRectangle;html=1;whiteSpace=wrap;connectable=0;fillColor=none;top=0;left=0;bottom=0;right=0;overflow=hidden;pointerEvents=1;" parent="163" vertex="1">
                    <mxGeometry width="43" height="27" as="geometry">
                        <mxRectangle width="43" height="27" as="alternateBounds"/>
                    </mxGeometry>
                </mxCell>
                <mxCell id="165" value="" style="shape=partialRectangle;html=1;whiteSpace=wrap;connectable=0;fillColor=none;top=0;left=0;bottom=0;right=0;overflow=hidden;pointerEvents=1;" parent="163" vertex="1">
                    <mxGeometry x="43" width="57" height="27" as="geometry">
                        <mxRectangle width="57" height="27" as="alternateBounds"/>
                    </mxGeometry>
                </mxCell>
                <mxCell id="166" value="" style="shape=partialRectangle;html=1;whiteSpace=wrap;connectable=0;fillColor=none;top=0;left=0;bottom=0;right=0;overflow=hidden;pointerEvents=1;" parent="163" vertex="1">
                    <mxGeometry x="100" width="30" height="27" as="geometry">
                        <mxRectangle width="30" height="27" as="alternateBounds"/>
                    </mxGeometry>
                </mxCell>
                <mxCell id="167" value="" style="shape=partialRectangle;html=1;whiteSpace=wrap;collapsible=0;dropTarget=0;pointerEvents=0;fillColor=none;top=0;left=0;bottom=0;right=0;points=[[0,0.5],[1,0.5]];portConstraint=eastwest;" parent="162" vertex="1">
                    <mxGeometry y="27" width="130" height="26" as="geometry"/>
                </mxCell>
                <mxCell id="168" value="" style="shape=partialRectangle;html=1;whiteSpace=wrap;connectable=0;fillColor=none;top=0;left=0;bottom=0;right=0;overflow=hidden;pointerEvents=1;" parent="167" vertex="1">
                    <mxGeometry width="43" height="26" as="geometry">
                        <mxRectangle width="43" height="26" as="alternateBounds"/>
                    </mxGeometry>
                </mxCell>
                <mxCell id="169" value="x" style="shape=partialRectangle;html=1;whiteSpace=wrap;connectable=0;fillColor=none;top=0;left=0;bottom=0;right=0;overflow=hidden;pointerEvents=1;" parent="167" vertex="1">
                    <mxGeometry x="43" width="57" height="26" as="geometry">
                        <mxRectangle width="57" height="26" as="alternateBounds"/>
                    </mxGeometry>
                </mxCell>
                <mxCell id="170" value="" style="shape=partialRectangle;html=1;whiteSpace=wrap;connectable=0;fillColor=none;top=0;left=0;bottom=0;right=0;overflow=hidden;pointerEvents=1;" parent="167" vertex="1">
                    <mxGeometry x="100" width="30" height="26" as="geometry">
                        <mxRectangle width="30" height="26" as="alternateBounds"/>
                    </mxGeometry>
                </mxCell>
                <mxCell id="171" value="" style="shape=partialRectangle;html=1;whiteSpace=wrap;collapsible=0;dropTarget=0;pointerEvents=0;fillColor=none;top=0;left=0;bottom=0;right=0;points=[[0,0.5],[1,0.5]];portConstraint=eastwest;" parent="162" vertex="1">
                    <mxGeometry y="53" width="130" height="27" as="geometry"/>
                </mxCell>
                <mxCell id="172" value="x" style="shape=partialRectangle;html=1;whiteSpace=wrap;connectable=0;fillColor=none;top=0;left=0;bottom=0;right=0;overflow=hidden;pointerEvents=1;" parent="171" vertex="1">
                    <mxGeometry width="43" height="27" as="geometry">
                        <mxRectangle width="43" height="27" as="alternateBounds"/>
                    </mxGeometry>
                </mxCell>
                <mxCell id="173" value="" style="shape=partialRectangle;html=1;whiteSpace=wrap;connectable=0;fillColor=none;top=0;left=0;bottom=0;right=0;overflow=hidden;pointerEvents=1;" parent="171" vertex="1">
                    <mxGeometry x="43" width="57" height="27" as="geometry">
                        <mxRectangle width="57" height="27" as="alternateBounds"/>
                    </mxGeometry>
                </mxCell>
                <mxCell id="174" value="" style="shape=partialRectangle;html=1;whiteSpace=wrap;connectable=0;fillColor=none;top=0;left=0;bottom=0;right=0;overflow=hidden;pointerEvents=1;" parent="171" vertex="1">
                    <mxGeometry x="100" width="30" height="27" as="geometry">
                        <mxRectangle width="30" height="27" as="alternateBounds"/>
                    </mxGeometry>
                </mxCell>
                <mxCell id="175" value="Result" style="text;html=1;align=center;verticalAlign=middle;resizable=0;points=[];autosize=1;strokeColor=none;fillColor=none;" parent="1" vertex="1">
                    <mxGeometry x="655" y="1300" width="50" height="20" as="geometry"/>
                </mxCell>
                <mxCell id="203" value="" style="shape=table;html=1;whiteSpace=wrap;startSize=0;container=1;collapsible=0;childLayout=tableLayout;" parent="1" vertex="1">
                    <mxGeometry x="1325" y="380" width="130" height="80" as="geometry"/>
                </mxCell>
                <mxCell id="204" value="" style="shape=partialRectangle;html=1;whiteSpace=wrap;collapsible=0;dropTarget=0;pointerEvents=0;fillColor=none;top=0;left=0;bottom=0;right=0;points=[[0,0.5],[1,0.5]];portConstraint=eastwest;" parent="203" vertex="1">
                    <mxGeometry width="130" height="27" as="geometry"/>
                </mxCell>
                <mxCell id="205" value="xx" style="shape=partialRectangle;html=1;whiteSpace=wrap;connectable=0;fillColor=none;top=0;left=0;bottom=0;right=0;overflow=hidden;pointerEvents=1;" parent="204" vertex="1">
                    <mxGeometry width="43" height="27" as="geometry">
                        <mxRectangle width="43" height="27" as="alternateBounds"/>
                    </mxGeometry>
                </mxCell>
                <mxCell id="206" value="" style="shape=partialRectangle;html=1;whiteSpace=wrap;connectable=0;fillColor=none;top=0;left=0;bottom=0;right=0;overflow=hidden;pointerEvents=1;" parent="204" vertex="1">
                    <mxGeometry x="43" width="44" height="27" as="geometry">
                        <mxRectangle width="44" height="27" as="alternateBounds"/>
                    </mxGeometry>
                </mxCell>
                <mxCell id="207" value="xxx" style="shape=partialRectangle;html=1;whiteSpace=wrap;connectable=0;fillColor=none;top=0;left=0;bottom=0;right=0;overflow=hidden;pointerEvents=1;" parent="204" vertex="1">
                    <mxGeometry x="87" width="43" height="27" as="geometry">
                        <mxRectangle width="43" height="27" as="alternateBounds"/>
                    </mxGeometry>
                </mxCell>
                <mxCell id="208" value="" style="shape=partialRectangle;html=1;whiteSpace=wrap;collapsible=0;dropTarget=0;pointerEvents=0;fillColor=none;top=0;left=0;bottom=0;right=0;points=[[0,0.5],[1,0.5]];portConstraint=eastwest;" parent="203" vertex="1">
                    <mxGeometry y="27" width="130" height="26" as="geometry"/>
                </mxCell>
                <mxCell id="209" value="xx" style="shape=partialRectangle;html=1;whiteSpace=wrap;connectable=0;fillColor=none;top=0;left=0;bottom=0;right=0;overflow=hidden;pointerEvents=1;" parent="208" vertex="1">
                    <mxGeometry width="43" height="26" as="geometry">
                        <mxRectangle width="43" height="26" as="alternateBounds"/>
                    </mxGeometry>
                </mxCell>
                <mxCell id="210" value="xx" style="shape=partialRectangle;html=1;whiteSpace=wrap;connectable=0;fillColor=none;top=0;left=0;bottom=0;right=0;overflow=hidden;pointerEvents=1;" parent="208" vertex="1">
                    <mxGeometry x="43" width="44" height="26" as="geometry">
                        <mxRectangle width="44" height="26" as="alternateBounds"/>
                    </mxGeometry>
                </mxCell>
                <mxCell id="211" value="" style="shape=partialRectangle;html=1;whiteSpace=wrap;connectable=0;fillColor=none;top=0;left=0;bottom=0;right=0;overflow=hidden;pointerEvents=1;" parent="208" vertex="1">
                    <mxGeometry x="87" width="43" height="26" as="geometry">
                        <mxRectangle width="43" height="26" as="alternateBounds"/>
                    </mxGeometry>
                </mxCell>
                <mxCell id="212" value="" style="shape=partialRectangle;html=1;whiteSpace=wrap;collapsible=0;dropTarget=0;pointerEvents=0;fillColor=none;top=0;left=0;bottom=0;right=0;points=[[0,0.5],[1,0.5]];portConstraint=eastwest;" parent="203" vertex="1">
                    <mxGeometry y="53" width="130" height="27" as="geometry"/>
                </mxCell>
                <mxCell id="213" value="x" style="shape=partialRectangle;html=1;whiteSpace=wrap;connectable=0;fillColor=none;top=0;left=0;bottom=0;right=0;overflow=hidden;pointerEvents=1;" parent="212" vertex="1">
                    <mxGeometry width="43" height="27" as="geometry">
                        <mxRectangle width="43" height="27" as="alternateBounds"/>
                    </mxGeometry>
                </mxCell>
                <mxCell id="214" value="" style="shape=partialRectangle;html=1;whiteSpace=wrap;connectable=0;fillColor=none;top=0;left=0;bottom=0;right=0;overflow=hidden;pointerEvents=1;" parent="212" vertex="1">
                    <mxGeometry x="43" width="44" height="27" as="geometry">
                        <mxRectangle width="44" height="27" as="alternateBounds"/>
                    </mxGeometry>
                </mxCell>
                <mxCell id="215" value="xx" style="shape=partialRectangle;html=1;whiteSpace=wrap;connectable=0;fillColor=none;top=0;left=0;bottom=0;right=0;overflow=hidden;pointerEvents=1;" parent="212" vertex="1">
                    <mxGeometry x="87" width="43" height="27" as="geometry">
                        <mxRectangle width="43" height="27" as="alternateBounds"/>
                    </mxGeometry>
                </mxCell>
                <mxCell id="216" value="Result" style="text;html=1;align=center;verticalAlign=middle;resizable=0;points=[];autosize=1;strokeColor=none;fillColor=none;" parent="1" vertex="1">
                    <mxGeometry x="1365" y="360" width="50" height="20" as="geometry"/>
                </mxCell>
                <mxCell id="219" value="&amp;nbsp;Subject" style="swimlane;fontStyle=1;align=center;verticalAlign=middle;childLayout=stackLayout;horizontal=1;startSize=29;horizontalStack=0;resizeParent=1;resizeParentMax=0;resizeLast=0;collapsible=0;marginBottom=0;html=1;" parent="1" vertex="1">
                    <mxGeometry x="650" y="90" width="140" height="129" as="geometry"/>
                </mxCell>
                <mxCell id="220" value="&amp;lt;&amp;lt;stereotype1&amp;gt;&amp;gt;" style="text;html=1;strokeColor=none;fillColor=none;align=center;verticalAlign=middle;spacingLeft=4;spacingRight=4;overflow=hidden;rotatable=0;points=[[0,0.5],[1,0.5]];portConstraint=eastwest;" parent="219" vertex="1">
                    <mxGeometry y="29" width="140" height="25" as="geometry"/>
                </mxCell>
                <mxCell id="222" value="khoa" style="text;html=1;strokeColor=none;fillColor=none;align=left;verticalAlign=middle;spacingLeft=4;spacingRight=4;overflow=hidden;rotatable=0;points=[[0,0.5],[1,0.5]];portConstraint=eastwest;" parent="219" vertex="1">
                    <mxGeometry y="54" width="140" height="25" as="geometry"/>
                </mxCell>
                <mxCell id="223" value="id" style="text;html=1;strokeColor=none;fillColor=none;align=left;verticalAlign=middle;spacingLeft=4;spacingRight=4;overflow=hidden;rotatable=0;points=[[0,0.5],[1,0.5]];portConstraint=eastwest;" parent="219" vertex="1">
                    <mxGeometry y="79" width="140" height="25" as="geometry"/>
                </mxCell>
                <mxCell id="229" value="List&amp;lt;Instructor&amp;gt;" style="text;html=1;strokeColor=none;fillColor=none;align=left;verticalAlign=middle;spacingLeft=4;spacingRight=4;overflow=hidden;rotatable=0;points=[[0,0.5],[1,0.5]];portConstraint=eastwest;" parent="219" vertex="1">
                    <mxGeometry y="104" width="140" height="25" as="geometry"/>
                </mxCell>
                <mxCell id="236" value="DailyTimetable" style="swimlane;fontStyle=1;align=center;verticalAlign=middle;childLayout=stackLayout;horizontal=1;startSize=29;horizontalStack=0;resizeParent=1;resizeParentMax=0;resizeLast=0;collapsible=0;marginBottom=0;html=1;" parent="1" vertex="1">
                    <mxGeometry x="10" y="157" width="165" height="79" as="geometry"/>
                </mxCell>
                <mxCell id="237" value="&amp;lt;&amp;lt;stereotype1&amp;gt;&amp;gt;" style="text;html=1;strokeColor=none;fillColor=none;align=center;verticalAlign=middle;spacingLeft=4;spacingRight=4;overflow=hidden;rotatable=0;points=[[0,0.5],[1,0.5]];portConstraint=eastwest;" parent="236" vertex="1">
                    <mxGeometry y="29" width="165" height="25" as="geometry"/>
                </mxCell>
                <mxCell id="238" value="Thời gian bận -&amp;gt; List&amp;lt;bool&amp;gt;" style="text;html=1;strokeColor=none;fillColor=none;align=left;verticalAlign=middle;spacingLeft=4;spacingRight=4;overflow=hidden;rotatable=0;points=[[0,0.5],[1,0.5]];portConstraint=eastwest;" parent="236" vertex="1">
                    <mxGeometry y="54" width="165" height="25" as="geometry"/>
                </mxCell>
                <mxCell id="249" style="edgeStyle=orthogonalEdgeStyle;html=1;" parent="1" source="247" target="236" edge="1">
                    <mxGeometry relative="1" as="geometry"/>
                </mxCell>
                <mxCell id="252" style="edgeStyle=orthogonalEdgeStyle;html=1;" parent="1" source="250" target="236" edge="1">
                    <mxGeometry relative="1" as="geometry"/>
                </mxCell>
                <mxCell id="253" style="edgeStyle=orthogonalEdgeStyle;html=1;" parent="1" source="229" target="8" edge="1">
                    <mxGeometry relative="1" as="geometry"/>
                </mxCell>
                <mxCell id="254" value="Output" style="text;html=1;align=center;verticalAlign=middle;resizable=0;points=[];autosize=1;strokeColor=none;fillColor=none;" parent="1" vertex="1">
                    <mxGeometry x="115" y="530" width="50" height="20" as="geometry"/>
                </mxCell>
                <mxCell id="268" value="ClassType" style="swimlane;fontStyle=1;align=center;verticalAlign=middle;childLayout=stackLayout;horizontal=1;startSize=29;horizontalStack=0;resizeParent=1;resizeParentMax=0;resizeLast=0;collapsible=0;marginBottom=0;html=1;" parent="1" vertex="1">
                    <mxGeometry x="720" y="355.5" width="140" height="129" as="geometry"/>
                </mxCell>
                <mxCell id="269" value="&amp;lt;&amp;lt;stereotype1&amp;gt;&amp;gt;" style="text;html=1;strokeColor=none;fillColor=none;align=center;verticalAlign=middle;spacingLeft=4;spacingRight=4;overflow=hidden;rotatable=0;points=[[0,0.5],[1,0.5]];portConstraint=eastwest;" parent="268" vertex="1">
                    <mxGeometry y="29" width="140" height="25" as="geometry"/>
                </mxCell>
                <mxCell id="270" value="loại" style="text;html=1;strokeColor=none;fillColor=none;align=left;verticalAlign=middle;spacingLeft=4;spacingRight=4;overflow=hidden;rotatable=0;points=[[0,0.5],[1,0.5]];portConstraint=eastwest;" parent="268" vertex="1">
                    <mxGeometry y="54" width="140" height="25" as="geometry"/>
                </mxCell>
                <mxCell id="271" value="khoa" style="text;html=1;strokeColor=none;fillColor=none;align=left;verticalAlign=middle;spacingLeft=4;spacingRight=4;overflow=hidden;rotatable=0;points=[[0,0.5],[1,0.5]];portConstraint=eastwest;" parent="268" vertex="1">
                    <mxGeometry y="79" width="140" height="25" as="geometry"/>
                </mxCell>
                <mxCell id="272" value="List&amp;lt;DailyTimetable&amp;gt;" style="text;html=1;strokeColor=none;fillColor=none;align=left;verticalAlign=middle;spacingLeft=4;spacingRight=4;overflow=hidden;rotatable=0;points=[[0,0.5],[1,0.5]];portConstraint=eastwest;" parent="268" vertex="1">
                    <mxGeometry y="104" width="140" height="25" as="geometry"/>
                </mxCell>
                <mxCell id="273" value="Student" style="swimlane;fontStyle=1;align=center;verticalAlign=middle;childLayout=stackLayout;horizontal=1;startSize=29;horizontalStack=0;resizeParent=1;resizeParentMax=0;resizeLast=0;collapsible=0;marginBottom=0;html=1;" parent="1" vertex="1">
                    <mxGeometry x="590" y="540" width="140" height="79" as="geometry"/>
                </mxCell>
                <mxCell id="274" value="&amp;lt;&amp;lt;stereotype1&amp;gt;&amp;gt;" style="text;html=1;strokeColor=none;fillColor=none;align=center;verticalAlign=middle;spacingLeft=4;spacingRight=4;overflow=hidden;rotatable=0;points=[[0,0.5],[1,0.5]];portConstraint=eastwest;" parent="273" vertex="1">
                    <mxGeometry y="29" width="140" height="25" as="geometry"/>
                </mxCell>
                <mxCell id="275" value="List&amp;lt;DailyTimetable&amp;gt;" style="text;html=1;strokeColor=none;fillColor=none;align=left;verticalAlign=middle;spacingLeft=4;spacingRight=4;overflow=hidden;rotatable=0;points=[[0,0.5],[1,0.5]];portConstraint=eastwest;" parent="273" vertex="1">
                    <mxGeometry y="54" width="140" height="25" as="geometry"/>
                </mxCell>
                <mxCell id="jv6mgJiBE8saly9TBgq--275" value="Tương tự, nhưng đã cập nhật Timetable" style="text;html=1;align=center;verticalAlign=middle;resizable=0;points=[];autosize=1;strokeColor=none;fillColor=none;" parent="1" vertex="1">
                    <mxGeometry x="180" y="530" width="230" height="20" as="geometry"/>
                </mxCell>
            </root>
        </mxGraphModel>
    </diagram>
    <diagram id="QKlTBCVmR89iBUIbvl_C" name="Class">
        <mxGraphModel dx="1216" dy="623" grid="1" gridSize="10" guides="1" tooltips="1" connect="1" arrows="1" fold="1" page="1" pageScale="1" pageWidth="850" pageHeight="1100" math="0" shadow="0">
            <root>
                <mxCell id="f7ab4uw6Qqh09ItTOtYQ-0"/>
                <mxCell id="f7ab4uw6Qqh09ItTOtYQ-1" parent="f7ab4uw6Qqh09ItTOtYQ-0"/>
                <mxCell id="hA17HkoISFAvEx4GVWQz-0" value="Room" style="swimlane;fontStyle=1;align=center;verticalAlign=top;childLayout=stackLayout;horizontal=1;startSize=26;horizontalStack=0;resizeParent=1;resizeParentMax=0;resizeLast=0;collapsible=1;marginBottom=0;" parent="f7ab4uw6Qqh09ItTOtYQ-1" vertex="1">
                    <mxGeometry x="560" y="70" width="160" height="164" as="geometry"/>
                </mxCell>
                <mxCell id="hA17HkoISFAvEx4GVWQz-1" value="+ label: string" style="text;strokeColor=none;fillColor=none;align=left;verticalAlign=top;spacingLeft=4;spacingRight=4;overflow=hidden;rotatable=0;points=[[0,0.5],[1,0.5]];portConstraint=eastwest;" parent="hA17HkoISFAvEx4GVWQz-0" vertex="1">
                    <mxGeometry y="26" width="160" height="26" as="geometry"/>
                </mxCell>
                <mxCell id="IITJ-R6os9hqzOiFJEBP-0" value="+ capacity: number" style="text;strokeColor=none;fillColor=none;align=left;verticalAlign=top;spacingLeft=4;spacingRight=4;overflow=hidden;rotatable=0;points=[[0,0.5],[1,0.5]];portConstraint=eastwest;" parent="hA17HkoISFAvEx4GVWQz-0" vertex="1">
                    <mxGeometry y="52" width="160" height="26" as="geometry"/>
                </mxCell>
                <mxCell id="xwrKttm-Ka90iK9EzOor-0" value="+ type: enum(Lec, Lab)" style="text;strokeColor=none;fillColor=none;align=left;verticalAlign=top;spacingLeft=4;spacingRight=4;overflow=hidden;rotatable=0;points=[[0,0.5],[1,0.5]];portConstraint=eastwest;" parent="hA17HkoISFAvEx4GVWQz-0" vertex="1">
                    <mxGeometry y="78" width="160" height="26" as="geometry"/>
                </mxCell>
                <mxCell id="4wAECgabFKcjBu1BKJCU-0" value="+ coord: Coordinate" style="text;strokeColor=none;fillColor=none;align=left;verticalAlign=top;spacingLeft=4;spacingRight=4;overflow=hidden;rotatable=0;points=[[0,0.5],[1,0.5]];portConstraint=eastwest;" parent="hA17HkoISFAvEx4GVWQz-0" vertex="1">
                    <mxGeometry y="104" width="160" height="26" as="geometry"/>
                </mxCell>
                <mxCell id="hA17HkoISFAvEx4GVWQz-2" value="" style="line;strokeWidth=1;fillColor=none;align=left;verticalAlign=middle;spacingTop=-1;spacingLeft=3;spacingRight=3;rotatable=0;labelPosition=right;points=[];portConstraint=eastwest;" parent="hA17HkoISFAvEx4GVWQz-0" vertex="1">
                    <mxGeometry y="130" width="160" height="8" as="geometry"/>
                </mxCell>
                <mxCell id="hA17HkoISFAvEx4GVWQz-3" value="+ method(type): type" style="text;strokeColor=none;fillColor=none;align=left;verticalAlign=top;spacingLeft=4;spacingRight=4;overflow=hidden;rotatable=0;points=[[0,0.5],[1,0.5]];portConstraint=eastwest;" parent="hA17HkoISFAvEx4GVWQz-0" vertex="1">
                    <mxGeometry y="138" width="160" height="26" as="geometry"/>
                </mxCell>
                <mxCell id="51Yh6TK7igMa8uJvvWXg-0" value="Coordinate" style="swimlane;fontStyle=1;align=center;verticalAlign=top;childLayout=stackLayout;horizontal=1;startSize=26;horizontalStack=0;resizeParent=1;resizeParentMax=0;resizeLast=0;collapsible=1;marginBottom=0;" parent="f7ab4uw6Qqh09ItTOtYQ-1" vertex="1">
                    <mxGeometry x="40" y="60" width="220" height="164" as="geometry"/>
                </mxCell>
                <mxCell id="51Yh6TK7igMa8uJvvWXg-1" value="+ zone: string" style="text;strokeColor=none;fillColor=none;align=left;verticalAlign=top;spacingLeft=4;spacingRight=4;overflow=hidden;rotatable=0;points=[[0,0.5],[1,0.5]];portConstraint=eastwest;" parent="51Yh6TK7igMa8uJvvWXg-0" vertex="1">
                    <mxGeometry y="26" width="220" height="26" as="geometry"/>
                </mxCell>
                <mxCell id="51Yh6TK7igMa8uJvvWXg-2" value="+ building: string" style="text;strokeColor=none;fillColor=none;align=left;verticalAlign=top;spacingLeft=4;spacingRight=4;overflow=hidden;rotatable=0;points=[[0,0.5],[1,0.5]];portConstraint=eastwest;" parent="51Yh6TK7igMa8uJvvWXg-0" vertex="1">
                    <mxGeometry y="52" width="220" height="26" as="geometry"/>
                </mxCell>
                <mxCell id="51Yh6TK7igMa8uJvvWXg-5" value="+ floor: number" style="text;strokeColor=none;fillColor=none;align=left;verticalAlign=top;spacingLeft=4;spacingRight=4;overflow=hidden;rotatable=0;points=[[0,0.5],[1,0.5]];portConstraint=eastwest;" parent="51Yh6TK7igMa8uJvvWXg-0" vertex="1">
                    <mxGeometry y="78" width="220" height="26" as="geometry"/>
                </mxCell>
                <mxCell id="51Yh6TK7igMa8uJvvWXg-3" value="" style="line;strokeWidth=1;fillColor=none;align=left;verticalAlign=middle;spacingTop=-1;spacingLeft=3;spacingRight=3;rotatable=0;labelPosition=right;points=[];portConstraint=eastwest;" parent="51Yh6TK7igMa8uJvvWXg-0" vertex="1">
                    <mxGeometry y="104" width="220" height="8" as="geometry"/>
                </mxCell>
                <mxCell id="51Yh6TK7igMa8uJvvWXg-4" value="+ Coordinate(label: string): constructor" style="text;strokeColor=none;fillColor=none;align=left;verticalAlign=top;spacingLeft=4;spacingRight=4;overflow=hidden;rotatable=0;points=[[0,0.5],[1,0.5]];portConstraint=eastwest;" parent="51Yh6TK7igMa8uJvvWXg-0" vertex="1">
                    <mxGeometry y="112" width="220" height="26" as="geometry"/>
                </mxCell>
                <mxCell id="51Yh6TK7igMa8uJvvWXg-7" value="+ distanceTo(x: Coordinator): number" style="text;strokeColor=none;fillColor=none;align=left;verticalAlign=top;spacingLeft=4;spacingRight=4;overflow=hidden;rotatable=0;points=[[0,0.5],[1,0.5]];portConstraint=eastwest;" parent="51Yh6TK7igMa8uJvvWXg-0" vertex="1">
                    <mxGeometry y="138" width="220" height="26" as="geometry"/>
                </mxCell>
                <mxCell id="inNtM1WHnxl6RjN6Ap43-0" value="Instructor" style="swimlane;fontStyle=1;align=center;verticalAlign=top;childLayout=stackLayout;horizontal=1;startSize=26;horizontalStack=0;resizeParent=1;resizeParentMax=0;resizeLast=0;collapsible=1;marginBottom=0;" parent="f7ab4uw6Qqh09ItTOtYQ-1" vertex="1">
                    <mxGeometry x="330" y="70" width="160" height="138" as="geometry"/>
                </mxCell>
                <mxCell id="inNtM1WHnxl6RjN6Ap43-1" value="+ id: string" style="text;strokeColor=none;fillColor=none;align=left;verticalAlign=top;spacingLeft=4;spacingRight=4;overflow=hidden;rotatable=0;points=[[0,0.5],[1,0.5]];portConstraint=eastwest;" parent="inNtM1WHnxl6RjN6Ap43-0" vertex="1">
                    <mxGeometry y="26" width="160" height="26" as="geometry"/>
                </mxCell>
                <mxCell id="inNtM1WHnxl6RjN6Ap43-2" value="+ name: string" style="text;strokeColor=none;fillColor=none;align=left;verticalAlign=top;spacingLeft=4;spacingRight=4;overflow=hidden;rotatable=0;points=[[0,0.5],[1,0.5]];portConstraint=eastwest;" parent="inNtM1WHnxl6RjN6Ap43-0" vertex="1">
                    <mxGeometry y="52" width="160" height="26" as="geometry"/>
                </mxCell>
                <mxCell id="inNtM1WHnxl6RjN6Ap43-3" value="+ department: string" style="text;strokeColor=none;fillColor=none;align=left;verticalAlign=top;spacingLeft=4;spacingRight=4;overflow=hidden;rotatable=0;points=[[0,0.5],[1,0.5]];portConstraint=eastwest;" parent="inNtM1WHnxl6RjN6Ap43-0" vertex="1">
                    <mxGeometry y="78" width="160" height="26" as="geometry"/>
                </mxCell>
                <mxCell id="inNtM1WHnxl6RjN6Ap43-5" value="" style="line;strokeWidth=1;fillColor=none;align=left;verticalAlign=middle;spacingTop=-1;spacingLeft=3;spacingRight=3;rotatable=0;labelPosition=right;points=[];portConstraint=eastwest;" parent="inNtM1WHnxl6RjN6Ap43-0" vertex="1">
                    <mxGeometry y="104" width="160" height="8" as="geometry"/>
                </mxCell>
                <mxCell id="inNtM1WHnxl6RjN6Ap43-6" value="+ method(type): type" style="text;strokeColor=none;fillColor=none;align=left;verticalAlign=top;spacingLeft=4;spacingRight=4;overflow=hidden;rotatable=0;points=[[0,0.5],[1,0.5]];portConstraint=eastwest;" parent="inNtM1WHnxl6RjN6Ap43-0" vertex="1">
                    <mxGeometry y="112" width="160" height="26" as="geometry"/>
                </mxCell>
                <mxCell id="6A6DFq_mzZ8-9ThVduM0-0" value="Subject" style="swimlane;fontStyle=1;align=center;verticalAlign=top;childLayout=stackLayout;horizontal=1;startSize=26;horizontalStack=0;resizeParent=1;resizeParentMax=0;resizeLast=0;collapsible=1;marginBottom=0;" parent="f7ab4uw6Qqh09ItTOtYQ-1" vertex="1">
                    <mxGeometry x="140" y="270" width="160" height="138" as="geometry"/>
                </mxCell>
                <mxCell id="6A6DFq_mzZ8-9ThVduM0-1" value="+ id: string" style="text;strokeColor=none;fillColor=none;align=left;verticalAlign=top;spacingLeft=4;spacingRight=4;overflow=hidden;rotatable=0;points=[[0,0.5],[1,0.5]];portConstraint=eastwest;" parent="6A6DFq_mzZ8-9ThVduM0-0" vertex="1">
                    <mxGeometry y="26" width="160" height="26" as="geometry"/>
                </mxCell>
                <mxCell id="6A6DFq_mzZ8-9ThVduM0-2" value="+ name: string" style="text;strokeColor=none;fillColor=none;align=left;verticalAlign=top;spacingLeft=4;spacingRight=4;overflow=hidden;rotatable=0;points=[[0,0.5],[1,0.5]];portConstraint=eastwest;" parent="6A6DFq_mzZ8-9ThVduM0-0" vertex="1">
                    <mxGeometry y="52" width="160" height="26" as="geometry"/>
                </mxCell>
                <mxCell id="6A6DFq_mzZ8-9ThVduM0-3" value="+ department: string" style="text;strokeColor=none;fillColor=none;align=left;verticalAlign=top;spacingLeft=4;spacingRight=4;overflow=hidden;rotatable=0;points=[[0,0.5],[1,0.5]];portConstraint=eastwest;" parent="6A6DFq_mzZ8-9ThVduM0-0" vertex="1">
                    <mxGeometry y="78" width="160" height="26" as="geometry"/>
                </mxCell>
                <mxCell id="6A6DFq_mzZ8-9ThVduM0-4" value="" style="line;strokeWidth=1;fillColor=none;align=left;verticalAlign=middle;spacingTop=-1;spacingLeft=3;spacingRight=3;rotatable=0;labelPosition=right;points=[];portConstraint=eastwest;" parent="6A6DFq_mzZ8-9ThVduM0-0" vertex="1">
                    <mxGeometry y="104" width="160" height="8" as="geometry"/>
                </mxCell>
                <mxCell id="6A6DFq_mzZ8-9ThVduM0-5" value="+ method(type): type" style="text;strokeColor=none;fillColor=none;align=left;verticalAlign=top;spacingLeft=4;spacingRight=4;overflow=hidden;rotatable=0;points=[[0,0.5],[1,0.5]];portConstraint=eastwest;" parent="6A6DFq_mzZ8-9ThVduM0-0" vertex="1">
                    <mxGeometry y="112" width="160" height="26" as="geometry"/>
                </mxCell>
                <mxCell id="p5tFQ-bzJ1ibJOR-IEcF-0" value="Student" style="swimlane;fontStyle=1;align=center;verticalAlign=top;childLayout=stackLayout;horizontal=1;startSize=26;horizontalStack=0;resizeParent=1;resizeParentMax=0;resizeLast=0;collapsible=1;marginBottom=0;" parent="f7ab4uw6Qqh09ItTOtYQ-1" vertex="1">
                    <mxGeometry x="360" y="270" width="160" height="138" as="geometry"/>
                </mxCell>
                <mxCell id="p5tFQ-bzJ1ibJOR-IEcF-1" value="+ id: string" style="text;strokeColor=none;fillColor=none;align=left;verticalAlign=top;spacingLeft=4;spacingRight=4;overflow=hidden;rotatable=0;points=[[0,0.5],[1,0.5]];portConstraint=eastwest;" parent="p5tFQ-bzJ1ibJOR-IEcF-0" vertex="1">
                    <mxGeometry y="26" width="160" height="26" as="geometry"/>
                </mxCell>
                <mxCell id="p5tFQ-bzJ1ibJOR-IEcF-2" value="+ name: string" style="text;strokeColor=none;fillColor=none;align=left;verticalAlign=top;spacingLeft=4;spacingRight=4;overflow=hidden;rotatable=0;points=[[0,0.5],[1,0.5]];portConstraint=eastwest;" parent="p5tFQ-bzJ1ibJOR-IEcF-0" vertex="1">
                    <mxGeometry y="52" width="160" height="26" as="geometry"/>
                </mxCell>
                <mxCell id="p5tFQ-bzJ1ibJOR-IEcF-3" value="+ department: string" style="text;strokeColor=none;fillColor=none;align=left;verticalAlign=top;spacingLeft=4;spacingRight=4;overflow=hidden;rotatable=0;points=[[0,0.5],[1,0.5]];portConstraint=eastwest;" parent="p5tFQ-bzJ1ibJOR-IEcF-0" vertex="1">
                    <mxGeometry y="78" width="160" height="26" as="geometry"/>
                </mxCell>
                <mxCell id="p5tFQ-bzJ1ibJOR-IEcF-4" value="" style="line;strokeWidth=1;fillColor=none;align=left;verticalAlign=middle;spacingTop=-1;spacingLeft=3;spacingRight=3;rotatable=0;labelPosition=right;points=[];portConstraint=eastwest;" parent="p5tFQ-bzJ1ibJOR-IEcF-0" vertex="1">
                    <mxGeometry y="104" width="160" height="8" as="geometry"/>
                </mxCell>
                <mxCell id="p5tFQ-bzJ1ibJOR-IEcF-5" value="+ method(type): type" style="text;strokeColor=none;fillColor=none;align=left;verticalAlign=top;spacingLeft=4;spacingRight=4;overflow=hidden;rotatable=0;points=[[0,0.5],[1,0.5]];portConstraint=eastwest;" parent="p5tFQ-bzJ1ibJOR-IEcF-0" vertex="1">
                    <mxGeometry y="112" width="160" height="26" as="geometry"/>
                </mxCell>
            </root>
        </mxGraphModel>
    </diagram>
</mxfile>